<?xml version="1.0" encoding="UTF-8" standalone="no"?>
<svg width="24px" height="24px" viewBox="0 0 24 24" version="1.1" xmlns="http://www.w3.org/2000/svg" xmlns:xlink="http://www.w3.org/1999/xlink" xmlns:sketch="http://www.bohemiancoding.com/sketch/ns">
    <!-- Generator: Sketch 3.3.3 (12072) - http://www.bohemiancoding.com/sketch -->
    <title>Master@0.5x</title>
    <desc>Created with Sketch.</desc>
    <defs></defs>
    <g id="24*24" stroke="none" stroke-width="1" fill="none" fill-rule="evenodd" sketch:type="MSPage">
        <g id="Master" sketch:type="MSArtboardGroup">
            <g sketch:type="MSLayerGroup" transform="translate(0.000000, 5.000000)">
                <path d="M14.2846088,6.9756378 C14.2846088,10.8282835 11.0926088,13.9510551 7.15491868,13.9510551 C3.21689051,13.9510551 0.0246651628,10.8282835 0.0246651628,6.9756378 C0.0246651628,3.12310236 3.21689051,0 7.15491868,0 C11.0926088,0 14.2846088,3.12310236 14.2846088,6.9756378" id="Fill-2" fill="#D82331" sketch:type="MSShapeGroup"></path>
                <path d="M16.7973976,0 C14.954806,0 13.2762708,0.683795276 12.0106933,1.80555906 C11.7533412,2.03418898 11.5128905,2.28111811 11.2912567,2.5440315 L12.7315947,2.5440315 C12.9283271,2.7783937 13.1097356,3.02477165 13.275144,3.28283465 L10.7473694,3.28283465 C10.5962708,3.51995276 10.4586933,3.76633071 10.3366652,4.0216378 L13.6858483,4.0216378 C13.8003271,4.26074016 13.9010595,4.50700787 13.9878201,4.76011024 L10.0346933,4.76011024 C9.95232713,5.00075591 9.88303136,5.24713386 9.82748206,5.49847244 L14.1946933,5.49847244 C14.299144,5.97469291 14.354806,6.46877165 14.354806,6.9756378 C14.354806,7.75004724 14.2259046,8.49546457 13.9878201,9.1916063 L10.0346933,9.1916063 C10.1213412,9.44459843 10.2221863,9.69108661 10.3364398,9.93051969 L13.6858483,9.93051969 C13.5634821,10.1851654 13.4265807,10.4317638 13.2745807,10.6692126 L10.7473694,10.6692126 C10.9123271,10.9265039 11.0940736,11.1732126 11.2912567,11.4072441 L12.731144,11.4072441 C12.5098483,11.670378 12.2692849,11.9173071 12.0110314,12.145937 C13.2764961,13.2677008 14.954806,13.9510551 16.7973976,13.9510551 C20.7350877,13.9510551 23.9273131,10.8282835 23.9273131,6.9756378 C23.9273131,3.12343307 20.7350877,0 16.7973976,0" id="Fill-3" fill="#F1AB3D" sketch:type="MSShapeGroup"></path>
                <path id="registered" fill="#F1AB3D" sketch:type="MSShapeGroup"></path>
                <path id="registered" fill="#FFFFFF" sketch:type="MSShapeGroup"></path>
                <path d="M22.1685525,5.4015748 L21.9964961,6.42379528 C21.7852285,6.15140157 21.5578483,5.95407874 21.2576792,5.95407874 C20.8670314,5.95407874 20.5116511,6.24377953 20.2788623,6.6703937 C19.9545807,6.60458268 19.6197074,6.49269291 19.6197074,6.49269291 L19.6194821,6.49544882 C19.6451722,6.25700787 19.6562145,6.11193701 19.6536229,6.06233071 L18.9425243,6.06233071 C18.8459609,6.95314961 18.6735666,7.85510236 18.539144,8.74625197 L18.5035384,8.93982677 L19.2781863,8.93982677 C19.382637,8.27576378 19.4625243,7.72370079 19.5215666,7.28650394 C19.7862426,7.05247244 19.9187497,6.84875591 20.1856792,6.86198425 C20.0673694,7.14220472 19.9981863,7.46475591 19.9981863,7.79568504 C19.9981863,8.51475591 20.3699046,8.98954331 20.9328342,8.98954331 C21.2165525,8.98954331 21.43413,8.89374803 21.6465243,8.67195276 L21.6100173,8.9396063 L22.3424116,8.9396063 L22.9319328,5.4015748 L22.1685525,5.4015748 L22.1685525,5.4015748 Z M21.2004398,8.27510236 C20.9370032,8.27510236 20.8037074,8.08395276 20.8037074,7.70782677 C20.8037074,7.14220472 21.0530595,6.74127559 21.4040454,6.74127559 C21.6700736,6.74127559 21.8141863,6.93925984 21.8141863,7.30480315 C21.8141863,7.87527559 21.5606652,8.27510236 21.2004398,8.27510236 L21.2004398,8.27510236 Z" id="Fill-12" fill="#0B2D5A" sketch:type="MSShapeGroup"></path>
                <path d="M17.7187497,7.72303937 C17.6379609,7.71377953 17.60213,7.71124409 17.546468,7.71124409 C17.1078201,7.71124409 16.8857356,7.85829921 16.8857356,8.14899213 C16.8857356,8.32790551 16.99413,8.44244094 17.163144,8.44244094 C17.4781863,8.44244094 17.7057919,8.14877165 17.7187497,7.72303937 L17.7187497,7.72303937 Z M18.28213,9.00475591 L17.6408905,9.00475591 L17.6554257,8.7067874 C17.4597074,8.94214173 17.1987497,9.05469291 16.8443835,9.05469291 C16.4245525,9.05469291 16.1373412,8.73390551 16.1373412,8.26848819 C16.1373412,7.5676063 16.6371722,7.15951181 17.4961018,7.15951181 C17.5838764,7.15951181 17.6961018,7.16733858 17.811144,7.18188976 C17.835144,7.08664567 17.8415666,7.04618898 17.8415666,6.99459843 C17.8415666,6.80433071 17.707144,6.73344882 17.3453412,6.73344882 C16.9667497,6.72903937 16.6547497,6.82130709 16.5259609,6.8624252 C16.5341863,6.81480315 16.6333412,6.21544882 16.6333412,6.21544882 C17.019144,6.10477165 17.2733412,6.06299213 17.5596511,6.06299213 C18.2243271,6.06299213 18.5765525,6.35522835 18.5757638,6.90685039 C18.5772285,7.05467717 18.5522145,7.23755906 18.5132285,7.47699213 C18.4460736,7.89335433 18.3019609,8.78759055 18.28213,9.00475591 L18.28213,9.00475591 Z" id="a" fill="#0C2D5A" sketch:type="MSShapeGroup"></path>
                <path d="M15.6769469,6.16771654 C15.8919328,6.16771654 16.0926088,6.2223937 16.3686652,6.35864567 L16.4954257,5.59085039 C16.3816229,5.54719685 15.982637,5.29133858 15.6446088,5.29133858 C15.1267497,5.29133858 14.6883271,5.54311811 14.3807215,5.95771654 C13.9313694,5.81220472 13.746468,6.10631496 13.5202145,6.39954331 L13.3190877,6.44540157 C13.334299,6.34894488 13.3481581,6.25303937 13.3437638,6.1560315 L12.6324398,6.1560315 C12.5356511,7.04685039 12.3635947,7.94880315 12.2288342,8.83995276 L12.1936792,9.03352756 L12.9681018,9.03352756 C13.0972285,8.21182677 13.1678764,7.68588976 13.2110314,7.3296063 L13.502637,7.17152756 C13.546468,7.01267717 13.682468,6.95932283 13.9559328,6.96582677 C13.9203271,7.15344882 13.9009469,7.35110236 13.9009469,7.55559055 C13.9009469,8.49711811 14.4207215,9.08324409 15.2537356,9.08324409 C15.4682708,9.08324409 15.6527215,9.05568504 15.93813,8.97962205 L16.0736792,8.17335433 C15.8171159,8.29670866 15.606975,8.35480315 15.4163271,8.35480315 C14.966299,8.35480315 14.6940736,8.02971654 14.6940736,7.49275591 C14.6940736,6.71349606 15.098806,6.16771654 15.6769469,6.16771654" id="Fill-11" fill="#0C2D5A" sketch:type="MSShapeGroup"></path>
                <path d="M11.9274257,8.93828346 C11.6630877,9.01743307 11.4076511,9.05491339 11.1377919,9.05469291 C10.2762708,9.05414173 9.82748206,8.61374803 9.82748206,7.77110236 C9.82748206,6.78724409 10.3985243,6.06299213 11.1736229,6.06299213 C11.8085525,6.06299213 12.2135102,6.46844094 12.2135102,7.10483465 C12.2135102,7.31571654 12.1853412,7.52152756 12.1188623,7.81222047 L10.5865807,7.81222047 C10.5345243,8.22968504 10.8077638,8.40385827 11.2552004,8.40385827 C11.530468,8.40385827 11.7790314,8.34807874 12.0555384,8.22240945 L11.9274257,8.93828346 L11.9274257,8.93828346 Z M11.494975,7.23193701 C11.499144,7.17174803 11.5764398,6.71834646 11.1367778,6.71834646 C10.8918201,6.71834646 10.7166088,6.90144882 10.6451722,7.23193701 L11.494975,7.23193701 L11.494975,7.23193701 Z" id="e" fill="#0C2D5A" sketch:type="MSShapeGroup"></path>
                <path d="M9.53079619,9.00133858 C9.31907788,9.06659843 9.15389479,9.09492913 8.97485253,9.09492913 C8.57913422,9.09492913 8.36302155,8.8723622 8.36302155,8.46305512 C8.3576131,8.33540157 8.42014831,8.00149606 8.46927507,7.69592126 C8.51389479,7.42683465 8.80493704,5.73228346 8.80493704,5.73228346 L9.57428915,5.73228346 L9.48437366,6.16771654 L9.87930324,6.16771654 L9.77417648,6.85911811 L9.37789479,6.85911811 C9.28854267,7.40677165 9.16099338,8.0880315 9.15952859,8.1784252 C9.15952859,8.32724409 9.24065535,8.39162205 9.42476803,8.39162205 C9.5128807,8.39162205 9.58116239,8.38313386 9.63344408,8.36450394 L9.53079619,9.00133858" id="t" fill="#0C2D5A" sketch:type="MSShapeGroup"></path>
                <path d="M6.51480601,7.03703937 C6.51480601,7.40137008 6.69531305,7.65182677 7.10443981,7.84066142 C7.41779192,7.98485039 7.46624263,8.02751181 7.46624263,8.15825197 C7.46624263,8.3376063 7.32810178,8.41851969 7.02173559,8.41851969 C6.79074967,8.41851969 6.57598911,8.38346457 6.32810178,8.30530709 C6.32810178,8.30530709 6.22669333,8.93927559 6.22184826,8.96925984 C6.39773559,9.00696063 6.55469333,9.04135433 7.02725671,9.05469291 C7.84415812,9.05469291 8.22139756,8.75055118 8.22139756,8.09299213 C8.22139756,7.69746457 8.06342573,7.46552756 7.67570742,7.29135433 C7.35120037,7.14529134 7.3139046,7.11299213 7.3139046,6.97850394 C7.3139046,6.82296063 7.44246798,6.74292913 7.6927215,6.74292913 C7.84449615,6.74292913 8.05215812,6.75946457 8.24889051,6.78658268 L8.3590877,6.11932283 C8.15863699,6.08834646 7.85486235,6.06299213 7.67773559,6.06299213 C6.81182009,6.06299213 6.51221446,6.50548031 6.51480601,7.03703937" id="s" fill="#0C2D5A" sketch:type="MSShapeGroup"></path>
                <path d="M5.55029897,7.72303937 C5.46917221,7.71377953 5.43334122,7.71124409 5.37756657,7.71124409 C4.93880601,7.71124409 4.7167215,7.85829921 4.7167215,8.14899213 C4.7167215,8.32790551 4.82511587,8.44244094 4.99424263,8.44244094 C5.30962291,8.44244094 5.53689051,8.14877165 5.55029897,7.72303937 L5.55029897,7.72303937 Z M6.11322854,9.00475591 L5.47198911,9.00475591 L5.48663699,8.7067874 C5.29103136,8.94214173 5.02996094,9.05469291 4.67536939,9.05469291 C4.25587643,9.05469291 3.96832713,8.73390551 3.96832713,8.26848819 C3.96832713,7.5676063 4.46849615,7.15951181 5.32720037,7.15951181 C5.4150877,7.15951181 5.5275384,7.16733858 5.64269333,7.18188976 C5.66669333,7.08664567 5.67300319,7.04618898 5.67300319,6.99459843 C5.67300319,6.80433071 5.53812995,6.73344882 5.17666516,6.73344882 C4.79773559,6.72903937 4.48562291,6.82130709 4.35717221,6.8624252 C4.36528488,6.81480315 4.46455249,6.21544882 4.46455249,6.21544882 C4.85024263,6.10477165 5.10466516,6.06299213 5.39097502,6.06299213 C6.05565108,6.06299213 6.40765108,6.35522835 6.40697502,6.90685039 C6.40832713,7.05467717 6.38331305,7.23755906 6.34443981,7.47699213 C6.27717221,7.89335433 6.13294685,8.78759055 6.11322854,9.00475591 L6.11322854,9.00475591 Z" id="a" fill="#0C2D5A" sketch:type="MSShapeGroup"></path>
                <path d="M3.57925671,9.04973228 L2.80528488,9.04973228 L3.24877784,6.32998425 L2.25869333,9.04973228 L1.73114404,9.04973228 L1.6659046,6.34574803 L1.19987643,9.04973228 L0.475369388,9.04973228 L1.08055249,5.51181102 L2.19367925,5.51181102 L2.22466516,7.70198425 L2.97576375,5.51181102 L4.1779046,5.51181102 L3.57925671,9.04973228" id="m" fill="#0C2D5A" sketch:type="MSShapeGroup"></path>
                <path d="M22.650468,8.82925984 L21.9184116,8.82925984 L21.9546933,8.56149606 C21.742299,8.78340157 21.5246088,8.87919685 21.2410032,8.87919685 C20.6784116,8.87919685 20.3063553,8.40496063 20.3063553,7.68511811 C20.3063553,6.72804724 20.8833694,5.92133858 21.5657356,5.92133858 C21.8660173,5.92133858 22.0932849,6.04127559 22.3050032,6.31377953 L22.4767215,5.29133858 L23.2401018,5.29133858 L22.650468,8.82925984 L22.650468,8.82925984 Z M21.5086088,8.1644252 C21.8692849,8.1644252 22.1223553,7.7648189 22.1223553,7.19489764 C22.1223553,6.82924409 21.9782426,6.63070866 21.7121018,6.63070866 C21.3611159,6.63070866 21.1117638,7.0316378 21.1117638,7.59748031 C21.1117638,7.97415748 21.2453976,8.1644252 21.5086088,8.1644252 L21.5086088,8.1644252 Z" id="d-2" fill="#FFFFFF" sketch:type="MSShapeGroup"></path>
                <path d="M19.1677638,5.87341082 C19.0708623,6.76400925 18.898806,7.66607224 18.7641581,8.55711161 L18.7288905,8.75068642 L19.5030877,8.75068642 C19.7799328,6.99109586 19.846637,6.64771004 20.2811159,6.69059193 C20.3501863,6.33045019 20.4788623,6.01506437 20.5748623,5.85610374 C20.2506933,5.78996201 20.0696229,5.9692061 19.8323271,6.30983602 C19.8512567,6.16245019 19.8853976,6.01947382 19.878975,5.87341082 L19.1677638,5.87341082" id="r-2" fill="#FFFFFF" sketch:type="MSShapeGroup"></path>
                <path d="M17.9441018,7.50256693 C17.8633131,7.49330709 17.8274821,7.49077165 17.7718201,7.49077165 C17.3331722,7.49077165 17.1110877,7.63782677 17.1110877,7.92851969 C17.1110877,8.10743307 17.2194821,8.2219685 17.3884961,8.2219685 C17.7035384,8.2219685 17.931144,7.92829921 17.9441018,7.50256693 L17.9441018,7.50256693 Z M18.5074821,8.78428346 L17.8662426,8.78428346 L17.8807778,8.48631496 C17.6850595,8.72166929 17.4241018,8.83422047 17.0697356,8.83422047 C16.6499046,8.83422047 16.3626933,8.51343307 16.3626933,8.04801575 C16.3626933,7.34713386 16.8625243,6.93903937 17.7214539,6.93903937 C17.8092285,6.93903937 17.9214539,6.94686614 18.0364961,6.96141732 C18.0604961,6.86617323 18.0669187,6.82571654 18.0669187,6.77412598 C18.0669187,6.58385827 17.9324961,6.51297638 17.5706933,6.51297638 C17.1921018,6.50856693 16.8801018,6.60083465 16.7513131,6.64195276 C16.7595384,6.59433071 16.8586933,5.99497638 16.8586933,5.99497638 C17.2444961,5.88429921 17.4986933,5.84251969 17.7850032,5.84251969 C18.4496792,5.84251969 18.8019046,6.13475591 18.8011159,6.68637795 C18.8025807,6.83420472 18.7775666,7.01708661 18.7385807,7.25651969 C18.6714257,7.67288189 18.5273131,8.56711811 18.5074821,8.78428346 L18.5074821,8.78428346 Z" id="a-2" fill="#FFFFFF" sketch:type="MSShapeGroup"></path>
                <path d="M16.7033131,5.36486614 L16.5765525,6.13266142 C16.3001581,5.99674016 16.0999328,5.94173228 15.8850595,5.94173228 C15.307144,5.94173228 14.9018483,6.48817323 14.9018483,7.26754331 C14.9018483,7.80450394 15.174299,8.12892913 15.6243271,8.12892913 C15.8148623,8.12892913 16.0254539,8.07127559 16.2816792,7.94748031 L16.1456792,8.75374803 C15.8607215,8.82981102 15.6762708,8.85748031 15.4617356,8.85748031 C14.6282708,8.85748031 14.1091722,8.27124409 14.1091722,7.32993701 C14.1091722,6.06508661 14.826806,5.18110236 15.8524961,5.18110236 C16.1905243,5.18110236 16.5897356,5.3212126 16.7033131,5.36486614" id="c-2" fill="#FFFFFF" sketch:type="MSShapeGroup"></path>
                <path d="M12.8583553,5.87341082 C12.7610032,6.76400925 12.5887215,7.66607224 12.454299,8.55711161 L12.4190314,8.75068642 L13.1934539,8.75068642 C13.4705243,6.99109586 13.5370032,6.64771004 13.970806,6.69059193 C14.0403271,6.33045019 14.1693412,6.01506437 14.2650032,5.85610374 C13.9410595,5.78996201 13.7597638,5.9692061 13.5229187,6.30983602 C13.5416229,6.16245019 13.5759891,6.01947382 13.5691159,5.87341082 L12.8583553,5.87341082" id="r-3" fill="#FFFFFF" sketch:type="MSShapeGroup"></path>
                <path d="M12.1527778,8.71781102 C11.8884398,8.79696063 11.6330032,8.83444094 11.363144,8.83422047 C10.5016229,8.83366929 10.0528342,8.39327559 10.0528342,7.55062992 C10.0528342,6.56677165 10.6238764,5.84251969 11.398975,5.84251969 C12.0339046,5.84251969 12.4388623,6.2479685 12.4388623,6.8843622 C12.4388623,7.09524409 12.4106933,7.30105512 12.3442145,7.59174803 L10.8119328,7.59174803 C10.7598764,8.0092126 11.0331159,8.18338583 11.4805525,8.18338583 C11.7558201,8.18338583 12.0043835,8.1276063 12.2808905,8.00193701 L12.1527778,8.71781102 L12.1527778,8.71781102 Z M11.7203271,7.01146457 C11.7244961,6.95127559 11.8017919,6.49787402 11.36213,6.49787402 C11.1171722,6.49787402 10.9419609,6.68097638 10.8705243,7.01146457 L11.7203271,7.01146457 L11.7203271,7.01146457 Z" id="e-2" fill="#FFFFFF" sketch:type="MSShapeGroup"></path>
                <path d="M9.75614831,8.78086614 C9.54443,8.84612598 9.3792469,8.87445669 9.20020464,8.87445669 C8.80448633,8.87445669 8.58837366,8.65188976 8.58837366,8.24258268 C8.58296521,8.11492913 8.64550042,7.78102362 8.69462718,7.47544882 C8.7392469,7.2063622 9.03028915,5.51181102 9.03028915,5.51181102 L9.79964126,5.51181102 L9.70972577,5.94724409 L10.1046553,5.94724409 L9.99952859,6.63864567 L9.6032469,6.63864567 C9.51389479,7.18629921 9.38634549,7.86755906 9.3848807,7.95795276 C9.3848807,8.10677165 9.46600746,8.17114961 9.65012014,8.17114961 C9.73823281,8.17114961 9.8065145,8.16266142 9.85879619,8.1440315 L9.75614831,8.78086614" id="t-2" fill="#FFFFFF" sketch:type="MSShapeGroup"></path>
                <path d="M6.74015812,6.81656693 C6.74015812,7.18089764 6.92066516,7.43135433 7.32979192,7.62018898 C7.64314404,7.76437795 7.69159474,7.80703937 7.69159474,7.93777953 C7.69159474,8.11713386 7.5534539,8.19804724 7.2470877,8.19804724 C7.01610178,8.19804724 6.80134122,8.16299213 6.5534539,8.08483465 C6.5534539,8.08483465 6.45204544,8.71880315 6.44720037,8.7487874 C6.6230877,8.78648819 6.78004544,8.82088189 7.25260882,8.83422047 C8.06951023,8.83422047 8.44674967,8.53007874 8.44674967,7.87251969 C8.44674967,7.47699213 8.28877784,7.24505512 7.90105953,7.07088189 C7.57655249,6.9248189 7.53925671,6.89251969 7.53925671,6.7580315 C7.53925671,6.60248819 7.66782009,6.52245669 7.91807361,6.52245669 C8.06984826,6.52245669 8.27751023,6.53899213 8.47424263,6.56611024 L8.58443981,5.89885039 C8.38398911,5.86787402 8.08021446,5.84251969 7.9030877,5.84251969 C7.03717221,5.84251969 6.73756657,6.28500787 6.74015812,6.81656693" id="s-2" fill="#FFFFFF" sketch:type="MSShapeGroup"></path>
                <path d="M5.77565108,7.50256693 C5.69452432,7.49330709 5.65869333,7.49077165 5.60291868,7.49077165 C5.16415812,7.49077165 4.94207361,7.63782677 4.94207361,7.92851969 C4.94207361,8.10743307 5.05046798,8.2219685 5.21959474,8.2219685 C5.53497502,8.2219685 5.76224263,7.92829921 5.77565108,7.50256693 L5.77565108,7.50256693 Z M6.33858066,8.78428346 L5.69734122,8.78428346 L5.71198911,8.48631496 C5.51638347,8.72166929 5.25531305,8.83422047 4.9007215,8.83422047 C4.48122854,8.83422047 4.19367925,8.51343307 4.19367925,8.04801575 C4.19367925,7.34713386 4.69384826,6.93903937 5.55255249,6.93903937 C5.64043981,6.93903937 5.75289051,6.94686614 5.86804544,6.96141732 C5.89204544,6.86617323 5.8983553,6.82571654 5.8983553,6.77412598 C5.8983553,6.58385827 5.76348206,6.51297638 5.40201728,6.51297638 C5.0230877,6.50856693 4.71097502,6.60083465 4.58252432,6.64195276 C4.59063699,6.59433071 4.6899046,5.99497638 4.6899046,5.99497638 C5.07559474,5.88429921 5.33001728,5.84251969 5.61632713,5.84251969 C6.28100319,5.84251969 6.63300319,6.13475591 6.63232713,6.68637795 C6.63367925,6.83420472 6.60866516,7.01708661 6.56979192,7.25651969 C6.50252432,7.67288189 6.35829897,8.56711811 6.33858066,8.78428346 L6.33858066,8.78428346 Z" id="a-3" fill="#FFFFFF" sketch:type="MSShapeGroup"></path>
                <path d="M3.80460882,8.82925984 L3.03063699,8.82925984 L3.47412995,6.10951181 L2.48404544,8.82925984 L1.95649615,8.82925984 L1.89125671,6.12527559 L1.42522854,8.82925984 L0.700721501,8.82925984 L1.3059046,5.29133858 L2.41903136,5.29133858 L2.45001728,7.48151181 L3.20111587,5.29133858 L4.40325671,5.29133858 L3.80460882,8.82925984" id="m-2" fill="#FFFFFF" sketch:type="MSShapeGroup"></path>
            </g>
        </g>
    </g>
</svg>