<?xml version="1.0" encoding="UTF-8" standalone="no"?>
<svg width="24px" height="24px" viewBox="0 0 24 24" version="1.1" xmlns="http://www.w3.org/2000/svg" xmlns:xlink="http://www.w3.org/1999/xlink" xmlns:sketch="http://www.bohemiancoding.com/sketch/ns">
    <!-- Generator: Sketch 3.3.3 (12072) - http://www.bohemiancoding.com/sketch -->
    <title>Paypal@0.5x</title>
    <desc>Created with Sketch.</desc>
    <defs></defs>
    <g id="24*24" stroke="none" stroke-width="1" fill="none" fill-rule="evenodd" sketch:type="MSPage">
        <g id="Paypal" sketch:type="MSArtboardGroup">
            <g id="paypal" sketch:type="MSLayerGroup" transform="translate(3.000000, 1.000000)">
                <path d="M15.3700587,1.59955704 C14.3870803,0.479984467 12.6102028,0 10.3371384,0 L3.73990827,0 C3.27484318,0 2.8796553,0.337984172 2.80684208,0.79625785 L0.0599045866,18.2053766 C0.00529467073,18.5486418 0.271297809,18.8596342 0.619509424,18.8596342 L4.69235218,18.8596342 L5.7152605,12.3763232 L5.68355152,12.5793484 C5.75636474,12.1210747 6.14861661,11.7830906 6.61309449,11.7830906 L8.54851689,11.7830906 C12.3506589,11.7830906 15.3277801,10.2398642 16.1974283,5.77565661 C16.2232653,5.64363154 16.245579,5.51512714 16.2649567,5.38955663 C16.1551497,5.33146561 16.1551497,5.33146561 16.2649567,5.38955663 C16.5239134,3.73953668 16.2631951,2.61644344 15.3700587,1.59955704" id="P" fill="#27346A" sketch:type="MSShapeGroup"></path>
                <path d="M16.2480615,5.33565971 L16.2480615,5.33565971 C16.2281245,5.46130006 16.2064283,5.58869353 16.1806275,5.72017761 C15.3121956,10.1655084 12.3392384,11.7029956 8.54241436,11.7029956 L6.60911259,11.7029956 C6.14528435,11.7029956 5.75358111,12.0395948 5.68145612,12.4959907 L4.41076612,20.5241166 C4.36326917,20.8233159 4.59547648,21.0944653 4.8992224,21.0944653 L8.32779851,21.0944653 C8.73357492,21.0944653 9.07895397,20.799941 9.14228324,20.4008137 L9.17570702,20.2266704 L9.82190009,16.1454044 L9.86353322,15.9198362 C9.92686248,15.520709 10.2722415,15.2261846 10.6780179,15.2261846 L11.1911023,15.2261846 C14.5123705,15.2261846 17.1129751,13.8815407 17.8729263,9.99253374 C18.190159,8.36739048 18.025972,7.01047474 17.1868592,6.05736123 C16.9323694,5.76868063 16.6163094,5.53025616 16.2480615,5.33565971" id="shadow" fill="#2790C3" sketch:type="MSShapeGroup"></path>
                <path d="M15.3391692,4.97451677 C15.2066469,4.9359481 15.0700198,4.90088568 14.9292881,4.86991387 C14.7885564,4.83894207 14.6431337,4.8114765 14.4941926,4.78751718 C13.9723126,4.70336737 13.4023492,4.66362996 12.7901663,4.66362996 L7.62589914,4.66362996 C7.49865423,4.66362996 7.37785952,4.69226427 7.26996521,4.74427353 C7.0313077,4.8582264 6.85480669,5.0826259 6.81141441,5.35786591 L5.71370713,12.2937974 L5.6820425,12.4959907 C5.7541675,12.0395948 6.14587074,11.7029956 6.60969897,11.7029956 L8.54300074,11.7029956 C12.3398248,11.7029956 15.312782,10.1660927 16.1812139,5.72017761 C16.2070147,5.58869353 16.2287109,5.46130006 16.2486478,5.33565971 C16.0287546,5.21995372 15.7906834,5.12002582 15.5344345,5.03529163 C15.4705188,5.01425418 15.4054304,4.9938011 15.3391692,4.97451677" id="fill" fill="#1F264F" sketch:type="MSShapeGroup"></path>
            </g>
        </g>
    </g>
</svg>