<?xml version="1.0" encoding="UTF-8" standalone="no"?>
<svg width="24px" height="24px" viewBox="0 0 24 24" version="1.1" xmlns="http://www.w3.org/2000/svg" xmlns:xlink="http://www.w3.org/1999/xlink" xmlns:sketch="http://www.bohemiancoding.com/sketch/ns">
    <!-- Generator: Sketch 3.3.3 (12072) - http://www.bohemiancoding.com/sketch -->
    <title>VISA@0.5x</title>
    <desc>Created with Sketch.</desc>
    <defs></defs>
    <g id="24*24" stroke="none" stroke-width="1" fill="none" fill-rule="evenodd" sketch:type="MSPage">
        <g id="VISA" sketch:type="MSArtboardGroup">
            <g sketch:type="MSLayerGroup" transform="translate(-1.000000, 8.000000)">
                <g id="registered" transform="translate(23.058824, 6.833333)" fill="#0161AB" sketch:type="MSShapeGroup">
                    <path d="M0.0606117647,0.4544 C0.0606117647,0.2286 0.232847059,0.0456 0.445176471,0.0456 C0.657882353,0.0456 0.829741176,0.2286 0.829741176,0.4544 C0.829741176,0.68 0.657882353,0.8632 0.445176471,0.8632 C0.232847059,0.8632 0.0606117647,0.68 0.0606117647,0.4544 L0.0606117647,0.4544 Z M0.445176471,0.7648 C0.607058824,0.7648 0.737694118,0.6258 0.737694118,0.4544 C0.737694118,0.2824 0.607058824,0.1438 0.445176471,0.1438 C0.284047059,0.1438 0.153223529,0.2824 0.153223529,0.4544 C0.153223529,0.6258 0.284047059,0.7648 0.445176471,0.7648 L0.445176471,0.7648 Z M0.393411765,0.6336 L0.314729412,0.6336 L0.314729412,0.2746 L0.457411765,0.2746 C0.487152941,0.2746 0.517270588,0.275 0.543623529,0.2926 C0.570917647,0.313 0.586352941,0.3468 0.586352941,0.3824 C0.586352941,0.4234 0.564329412,0.4614 0.528188235,0.4754 L0.589929412,0.6336 L0.5024,0.6336 L0.4512,0.4914 L0.393411765,0.4914 L0.393411765,0.6336 L0.393411765,0.6336 Z M0.393411765,0.43 L0.436705882,0.43 C0.453082353,0.43 0.470588235,0.4316 0.484894118,0.4234 C0.497882353,0.4144 0.504658824,0.3976 0.504658824,0.3816 C0.504658824,0.3684 0.496752941,0.3524 0.485647059,0.3454 C0.471717647,0.3368 0.449882353,0.3386 0.4352,0.3386 L0.393411765,0.3386 L0.393411765,0.43 L0.393411765,0.43 Z"></path>
                </g>
                <path d="M21.221096,7.72211538 L22.9280557,7.72211538 L21.4398514,0.179166667 L19.9455789,0.179166667 C19.2553313,0.179166667 19.0869412,0.741025641 19.0869412,0.741025641 L16.3147245,7.72211538 L18.2522724,7.72211538 L18.6397214,6.60192308 L21.0032508,6.60192308 L21.221096,7.72211538 Z M19.1755356,5.05416667 L20.1521981,2.23076923 L20.701969,5.05416667 L19.1755356,5.05416667 Z" id="a" fill="#0066B2" sketch:type="MSShapeGroup"></path>
                <path d="M16.4597523,1.99294872 L16.7252322,0.373076923 C16.7252322,0.373076923 15.9063406,0.0442307692 15.0531641,0.0442307692 C14.1305077,0.0442307692 11.9396161,0.470192308 11.9396161,2.54134615 C11.9396161,4.49038462 14.5112817,4.51474359 14.5112817,5.5375 C14.5112817,6.56089744 12.2047926,6.37820513 11.4432446,5.73269231 L11.1671455,7.42596154 C11.1671455,7.42596154 11.9969598,7.85224359 13.2658019,7.85224359 C14.5340372,7.85224359 16.4485263,7.15801282 16.4485263,5.26987179 C16.4485263,3.30865385 13.8538019,3.12564103 13.8538019,2.27307692 C13.8538019,1.42019231 15.6645263,1.52980769 16.4597523,1.99294872" id="s" fill="#0066B2" sketch:type="MSShapeGroup"></path>
                <path d="M10.0214861,7.72211538 L8.16252012,7.72211538 L9.32426006,0.179166667 L11.1838328,0.179166667 L10.0214861,7.72211538" id="i" fill="#0066B2" sketch:type="MSShapeGroup"></path>
                <path d="M1.6440031,0.179166667 L3.1089969,0.179166667 C3.91544892,0.179166667 3.9906935,0.858333333 3.9906935,0.858333333 L4.61631579,4.25032051 L4.61631579,4.25 L4.82627245,5.36730769 L6.5984644,0.179166667 L8.59942415,0.179166667 L5.64152322,7.72211538 L3.70458204,7.72211538 L2.08985759,1.16891026 C1.04098452,0.503525641 0.145027864,0.306730769 0.144724458,0.306730769 L0.179009288,0.179166667 L1.6440031,0.179166667 L3.1089969,0.179166667 C3.91544892,0.179166667 3.9906935,0.858333333 3.9906935,0.858333333 L4.61631579,4.25032051 C4.61631579,4.25032051 4.19579567,2.87435897 2.90419814,1.76987179 C1.55343653,0.615064103 0.145027864,0.306730769 0.144724458,0.306730769 L0.179009288,0.179166667 L1.6440031,0.179166667 Z" id="v" fill="#0066B2" sketch:type="MSShapeGroup"></path>
                <path d="M4.61631579,4.25032051 L3.9906935,0.858333333 C3.9906935,0.858333333 3.91544892,0.179166667 3.1089969,0.179166667 L0.179009288,0.179166667 L0.144724458,0.306730769 C0.145027864,0.306730769 1.55343653,0.615064103 2.90419814,1.76987179 C4.19579567,2.87435897 4.61631579,4.25032051 4.61631579,4.25032051" id="shape" fill="#F9A533" sketch:type="MSShapeGroup"></path>
            </g>
        </g>
    </g>
</svg>