<?xml version="1.0" encoding="UTF-8" standalone="no"?>
<svg width="24px" height="24px" viewBox="0 0 24 24" version="1.1" xmlns="http://www.w3.org/2000/svg" xmlns:xlink="http://www.w3.org/1999/xlink" xmlns:sketch="http://www.bohemiancoding.com/sketch/ns">
    <!-- Generator: Sketch 3.3.3 (12072) - http://www.bohemiancoding.com/sketch -->
    <title>上海银行@0.5x</title>
    <desc>Created with Sketch.</desc>
    <defs></defs>
    <g id="24*24" stroke="none" stroke-width="1" fill="none" fill-rule="evenodd" sketch:type="MSPage">
        <g id="上海银行" sketch:type="MSArtboardGroup">
            <g sketch:type="MSLayerGroup" transform="translate(1.000000, 1.000000)">
                <path d="M11.3515926,9.31862963 C14.1215556,9.31862963 16.555,9.54311111 18.6507037,9.955 C19.923037,10.216963 20.9342222,10.4789259 21.7571852,10.8158519 L10.9775926,0.0733333333 L0.272148148,10.7783704 C1.20796296,10.4414444 2.40574074,10.142 3.82840741,9.91751852 C6.11151852,9.50603704 8.61911111,9.31862963 11.3515926,9.31862963" id="Fill-1" fill="#F9C623" sketch:type="MSShapeGroup"></path>
                <path d="M10.9775926,21.6333333 L21.6826296,10.8908148 C20.185,10.7783704 18.1263704,10.7783704 15.5438148,10.9657778 C12.8113333,11.1527778 10.9405185,11.4147407 9.85477778,11.7516667 C8.88107407,12.0515185 8.43211111,12.4625926 8.50707407,12.9494444 C8.50707407,13.0993704 8.58203704,13.2863704 8.73155556,13.4358889 L8.99392593,13.6603704 C9.36792593,13.9223333 9.59240741,14.0351852 9.66737037,14.1097407 C10.0047037,14.4095926 10.1163333,14.784 10.0417778,15.2325556 C9.89225926,15.8318519 8.69407407,16.4682222 6.48592593,17.1041852 L10.9775926,21.6333333" id="Fill-2" fill="#30407F" sketch:type="MSShapeGroup"></path>
            </g>
        </g>
    </g>
</svg>