<?xml version="1.0" encoding="UTF-8" standalone="no"?>
<svg width="24px" height="24px" viewBox="0 0 24 24" version="1.1" xmlns="http://www.w3.org/2000/svg" xmlns:xlink="http://www.w3.org/1999/xlink" xmlns:sketch="http://www.bohemiancoding.com/sketch/ns">
    <!-- Generator: Sketch 3.3.3 (12072) - http://www.bohemiancoding.com/sketch -->
    <title>上海浦东发展银行@0.5x</title>
    <desc>Created with Sketch.</desc>
    <defs></defs>
    <g id="24*24" stroke="none" stroke-width="1" fill="none" fill-rule="evenodd" sketch:type="MSPage">
        <g id="上海浦东发展银行" sketch:type="MSArtboardGroup" fill="#292D78">
            <path d="M9.70332909,8.82786299 C7.64244089,4.88039418 2.42943265,5.4840658 1.28514971,8.84288326 C1.28514971,8.84288326 1.12599638,9.93221012 1.00073682,11.0658825 L1,17.9487404 L4.34811441,21 L4.34885123,12.5986649 C4.34885123,12.5986649 4.71210396,8.58253199 9.70332909,8.82786299 L9.70332909,8.82786299 Z M4.7909438,15.2357943 C4.7909438,15.2357943 10.2876281,15.9710721 10.4769911,10.513709 C10.3893094,5.38965271 17.1651149,5.05062386 19.0064304,8.73488039 C19.0064304,8.73488039 14.2045683,8.79639196 13.6991091,12.6594612 C13.6991091,12.6594612 13.7624757,17.4273226 9.97226874,17.9179846 C9.97226874,17.9179846 5.86522875,18.6089168 4.7909438,15.2357943 L4.7909438,15.2357943 Z M14.2959341,15.1728523 C16.3560855,19.1196058 21.4755174,18.4701581 22.6190636,15.1113407 C22.6190636,15.1113407 22.9675799,14.3424462 22.9985264,12.9348327 L23,6.05197489 L19.6511488,3 L19.6504119,11.4020504 C19.6504119,11.4020504 19.2871592,15.4181833 14.2959341,15.1728523 L14.2959341,15.1728523 Z" sketch:type="MSShapeGroup"></path>
        </g>
    </g>
</svg>