<?xml version="1.0" encoding="UTF-8" standalone="no"?>
<svg width="24px" height="24px" viewBox="0 0 24 24" version="1.1" xmlns="http://www.w3.org/2000/svg" xmlns:xlink="http://www.w3.org/1999/xlink" xmlns:sketch="http://www.bohemiancoding.com/sketch/ns">
    <!-- Generator: Sketch 3.3.3 (12072) - http://www.bohemiancoding.com/sketch -->
    <title>中信实业银行@0.5x</title>
    <desc>Created with Sketch.</desc>
    <defs></defs>
    <g id="24*24" stroke="none" stroke-width="1" fill="none" fill-rule="evenodd" sketch:type="MSPage">
        <g id="中信实业银行" sketch:type="MSArtboardGroup">
            <g sketch:type="MSLayerGroup" transform="translate(1.000000, 2.000000)">
                <path d="M0.567333333,0.168 L21.6646667,0.168 L21.6646667,20.9350312 L0.567333333,20.9350312 L0.567333333,0.168 Z" id="Fill-2" fill="#00659F" sketch:type="MSShapeGroup"></path>
                <path d="M11.104,20.8680937 L0.612666667,10.5406875 L11.104,0.21328125 L21.5953333,10.5406875 L11.104,20.8680937" id="Fill-3" fill="#FFFFFF" sketch:type="MSShapeGroup"></path>
                <path d="M7.966,4.5425625 L7.98866667,4.452 L8.03466667,4.36275 L8.10333333,4.2945 L8.172,4.249875 L8.51533333,4.1146875 L8.85933333,3.97884375 L9.04266667,3.9335625 L9.226,3.86596875 L9.59266667,3.7760625 L9.95866667,3.7078125 L10.1653333,3.6855 L10.348,3.6631875 L10.7373333,3.61790625 L11.5166667,3.61790625 L11.7226667,3.640875 L11.9286667,3.6631875 L12.2953333,3.7078125 L12.6846667,3.7760625 L13.0513333,3.86596875 L13.4173333,3.97884375 L13.7613333,4.1146875 L14.1046667,4.2721875 L14.174,4.3168125 L14.2426667,4.3850625 L14.288,4.452 L14.288,4.4979375 L14.3113333,4.5425625 L14.3113333,4.61015625 L14.288,4.67775 L14.2653333,4.72303125 L14.2426667,4.7683125 L14.1966667,4.8129375 L14.1506667,4.83590625 L14.0133333,4.9035 L13.83,4.99340625 L13.624,5.10628125 L13.3946667,5.2644375 L13.28,5.35434375 L13.1426667,5.46721875 L13.0053333,5.62471875 L12.868,5.75990625 L12.7533333,5.89509375 L12.662,6.03028125 L12.5013333,6.3013125 L12.364,6.57234375 L12.2953333,6.82040625 L12.2266667,7.0455 L12.1806667,7.22596875 L12.158,7.36115625 L12.158,17.3952187 L11.906,17.4405 L11.654,17.4628125 L10.6,17.4628125 L10.3253333,17.4175312 L10.0733333,17.3952187 L10.0733333,7.2935625 L10.0506667,7.13540625 L10.0046667,6.93328125 L9.936,6.72984375 L9.844,6.50409375 L9.73,6.25603125 L9.66133333,6.12084375 L9.56933333,5.98565625 L9.478,5.87278125 L9.386,5.73759375 L9.24866667,5.60240625 L9.134,5.46721875 L8.99666667,5.35434375 L8.882,5.2644375 L8.74466667,5.173875 L8.63,5.10628125 L8.424,4.99340625 L8.26333333,4.9035 L8.126,4.83590625 L8.08066667,4.8129375 L8.03466667,4.7683125 L7.98866667,4.72303125 L7.966,4.67775 L7.966,4.5425625 L7.966,4.5425625 Z M14.3113333,16.7192812 L13.9446667,16.8990937 L13.5546667,17.05725 L13.1426667,17.1924375 L12.7533333,17.2823437 L12.7533333,7.40578125 L12.7766667,7.158375 L12.8453333,6.93328125 L12.914,6.72984375 L12.9826667,6.549375 L13.0966667,6.36890625 L13.1886667,6.21140625 L13.3033333,6.0755625 L13.4173333,5.940375 L13.5546667,5.82815625 L13.6693333,5.71528125 L13.8986667,5.55778125 L14.0133333,5.48953125 L14.128,5.44490625 L14.2193333,5.399625 L14.3113333,5.35434375 L14.3113333,16.7192812 L14.3113333,16.7192812 Z M14.884,4.67775 L15.2046667,4.9035 L15.5253333,5.12859375 L15.8226667,5.37665625 L16.098,5.62471875 L16.3726667,5.89509375 L16.602,6.18909375 L16.7393333,6.34659375 L16.854,6.50409375 L17.06,6.82040625 L17.266,7.13540625 L17.4493333,7.47403125 L17.61,7.83496875 L17.8846667,8.5561875 L17.976,8.9394375 L18.068,9.3226875 L18.0906667,9.526125 L18.1133333,9.72825 L18.0906667,9.7965 L18.0446667,9.86409375 L17.976,9.954 L17.8846667,10.0215937 L17.8386667,10.066875 L17.77,10.0898437 L17.7013333,10.1121562 L17.61,10.1344687 L17.518,10.1344687 L17.4033333,10.1121562 L17.312,10.0898437 L17.22,10.066875 L17.1286667,10.0215937 L17.0373333,9.97696875 L16.9226667,9.88640625 L16.854,9.8188125 L16.808,9.7741875 L16.7166667,9.6613125 L16.6706667,9.5484375 L16.602,9.41325 L16.5793333,9.3909375 L16.556,9.345 L16.51,9.3226875 L16.4186667,9.3226875 L16.3726667,9.345 L16.304,9.3909375 L16.258,9.48084375 L16.1666667,9.61603125 L16.0286667,9.841125 L15.9833333,9.99928125 L15.9146667,10.1574375 L15.8913333,10.2696562 L15.8913333,10.3602187 L15.8686667,10.5859687 L15.8686667,10.7211562 L15.8913333,10.8563437 L15.9373333,11.0138437 L16.0746667,11.3295 L16.098,11.4194062 L16.144,11.4876562 L16.258,11.6228437 L16.3493333,11.7357187 L16.3953333,11.7580312 L16.4413333,11.7803437 L16.51,11.7803437 L16.5333333,11.7580312 L16.5793333,11.7357187 L16.6246667,11.6674687 L16.6933333,11.5099687 L16.7846667,11.3970937 L16.8766667,11.2619062 L16.9453333,11.2172812 L17.014,11.1490312 L17.0826667,11.1044062 L17.1746667,11.059125 L17.266,11.0138437 L17.358,10.9915312 L17.472,10.9692187 L17.5866667,10.9692187 L17.6786667,10.9915312 L17.77,11.0138437 L17.8613333,11.0820937 L17.9533333,11.1267187 L18.022,11.1943125 L18.068,11.2619062 L18.1133333,11.3071875 L18.1133333,11.3524687 L18.068,11.7580312 L17.976,12.1412812 L17.93,12.32175 L17.8846667,12.5245312 L17.61,13.2464062 L17.4493333,13.6066875 L17.266,13.9453125 L17.06,14.2609687 L16.854,14.576625 L16.6246667,14.8922812 L16.4873333,15.0274687 L16.3726667,15.185625 L16.098,15.4566562 L15.8226667,15.7270312 L15.5253333,15.9527812 L15.2046667,16.2008437 L14.884,16.4029687 L14.884,4.67775 L14.884,4.67775 Z M7.37066667,16.4029687 L7.02666667,16.1549062 L6.84333333,16.0420312 L6.66066667,15.9068437 L6.5,15.7716562 L6.33933333,15.6141562 L6.17933333,15.4789687 L6.042,15.3208125 L5.744,15.0051562 L5.60666667,14.8246875 L5.46933333,14.6671875 L5.35466667,14.4867187 L5.21733333,14.30625 L4.988,13.9453125 L4.89666667,13.741875 L4.782,13.5620625 L4.62133333,13.1565 L4.53,12.9530625 L4.46133333,12.7502812 L4.39266667,12.5475 L4.324,12.32175 L4.278,12.1189687 L4.232,11.8932187 L4.16333333,11.442375 L4.118,10.9915312 L4.09466667,10.5406875 L4.09466667,10.3149375 L4.118,10.0898437 L4.118,9.86409375 L4.16333333,9.639 L4.186,9.41325 L4.232,9.1875 L4.324,8.759625 L4.46133333,8.3304375 L4.53,8.12765625 L4.62133333,7.924875 L4.782,7.51865625 L4.89666667,7.33884375 L4.988,7.13540625 L5.21733333,6.77446875 L5.46933333,6.41353125 L5.744,6.0755625 L6.042,5.75990625 L6.33933333,5.46721875 L6.66066667,5.173875 L7.02666667,4.9258125 L7.37066667,4.67775 L7.37066667,9.75121875 L7.34733333,9.8188125 L7.32466667,9.88640625 L7.256,9.954 L7.18733333,10.0215937 L7.09533333,10.066875 L7.05,10.0898437 L6.98066667,10.1121562 L6.912,10.1344687 L6.77466667,10.1344687 L6.68333333,10.1121562 L6.59133333,10.0898437 L6.47666667,10.066875 L6.408,10.0215937 L6.31666667,9.97696875 L6.17933333,9.88640625 L6.13333333,9.8188125 L6.08733333,9.7741875 L5.996,9.6613125 L5.95,9.5484375 L5.88133333,9.41325 L5.85866667,9.3909375 L5.81266667,9.345 L5.79,9.3226875 L5.698,9.3226875 L5.65266667,9.345 L5.58333333,9.3909375 L5.51466667,9.48084375 L5.42333333,9.61603125 L5.30866667,9.841125 L5.24,9.99928125 L5.19466667,10.1574375 L5.17133333,10.2696562 L5.17133333,10.3602187 L5.14866667,10.5859687 L5.14866667,10.7211562 L5.17133333,10.8563437 L5.21733333,11.0138437 L5.26266667,11.1713437 L5.332,11.3295 L5.37733333,11.4194062 L5.42333333,11.4876562 L5.51466667,11.6228437 L5.62933333,11.7357187 L5.67533333,11.7580312 L5.72066667,11.7803437 L5.79,11.7803437 L5.81266667,11.7580312 L5.83533333,11.7357187 L5.904,11.6674687 L5.97266667,11.5099687 L6.042,11.3970937 L6.156,11.2619062 L6.22533333,11.2172812 L6.29333333,11.1490312 L6.36266667,11.1044062 L6.43066667,11.059125 L6.52266667,11.0138437 L6.63733333,10.9915312 L6.72866667,10.9692187 L6.84333333,10.9692187 L6.93533333,10.9915312 L7.02666667,11.0138437 L7.11866667,11.059125 L7.18733333,11.1044062 L7.302,11.2172812 L7.37066667,11.3071875 L7.37066667,16.4029687 L7.37066667,16.4029687 Z M9.50066667,17.2823437 L9.088,17.1694687 L8.69866667,17.05725 L8.51533333,16.9673437 L8.332,16.8990937 L8.14933333,16.8091875 L7.966,16.7192812 L7.966,5.35434375 L8.126,5.4219375 L8.35533333,5.5348125 L8.47,5.62471875 L8.58466667,5.69296875 L8.69866667,5.78221875 L8.81333333,5.89509375 L9.04266667,6.16546875 L9.134,6.3013125 L9.24866667,6.45946875 L9.31733333,6.63928125 L9.386,6.84271875 L9.45533333,7.0455 L9.50066667,7.2935625 L9.50066667,17.2823437 L9.50066667,17.2823437 Z" fill="#D9222A" sketch:type="MSShapeGroup"></path>
            </g>
        </g>
    </g>
</svg>