<?xml version="1.0" encoding="UTF-8" standalone="no"?>
<svg width="24px" height="24px" viewBox="0 0 24 24" version="1.1" xmlns="http://www.w3.org/2000/svg" xmlns:xlink="http://www.w3.org/1999/xlink" xmlns:sketch="http://www.bohemiancoding.com/sketch/ns">
    <!-- Generator: Sketch 3.3.3 (12072) - http://www.bohemiancoding.com/sketch -->
    <title>中信银行@0.5x</title>
    <desc>Created with Sketch.</desc>
    <defs></defs>
    <g id="24*24" stroke="none" stroke-width="1" fill="none" fill-rule="evenodd" sketch:type="MSPage">
        <g id="中信银行" sketch:type="MSArtboardGroup" fill="#C5222A">
            <g sketch:type="MSLayerGroup" transform="translate(2.000000, 2.000000)">
                <path d="M5.55,3.74746269 L5.55,18.7773134 C6.15242424,19.081791 6.79090909,19.3271642 7.45666667,19.5062687 L7.45666667,6.74238806 C7.45666667,5.42447761 6.67848485,4.28567164 5.55,3.74746269" id="Fill-1" sketch:type="MSShapeGroup"></path>
                <path d="M14.6069697,3.74746269 L14.6069697,18.7773134 C14.0042424,19.081791 13.3660606,19.3271642 12.7,19.5062687 L12.7,6.74238806 C12.7,5.42447761 13.4781818,4.28567164 14.6069697,3.74746269" id="Fill-2" sketch:type="MSShapeGroup"></path>
                <path d="M14.6315152,1.63910448 C14.6315152,1.46776119 14.5293939,1.32029851 14.3824242,1.25104478 L14.3827273,1.25074627 C13.080303,0.632537313 11.6209091,0.285970149 10.0784848,0.285970149 C8.53545455,0.285970149 7.07454545,0.633134328 5.77151515,1.25164179 L5.77151515,1.25223881 C5.62606061,1.32208955 5.52575758,1.46865672 5.52575758,1.63910448 C5.52575758,1.83283582 5.65515152,1.9958209 5.83363636,2.05014925 L5.83363636,2.05134328 C7.60363636,2.60119403 8.88666667,4.23044776 8.88666667,6.15552239 L8.88666667,19.7808955 C9.27727273,19.8271642 9.67515152,19.8516418 10.0784848,19.8516418 C10.4818182,19.8516418 10.8793939,19.8271642 11.270303,19.7808955 L11.270303,6.15552239 C11.270303,4.22985075 12.5539394,2.60029851 14.3245455,2.05104478 L14.3248485,2.04985075 C14.5021212,1.99552239 14.6315152,1.83223881 14.6315152,1.63910448" id="Fill-3" sketch:type="MSShapeGroup"></path>
                <path d="M3.28515152,9.43283582 C3.57181818,9.53522388 3.88393939,9.42238806 4.04060606,9.17850746 L4.04060606,2.30179104 C1.67363636,4.08985075 0.147575758,6.90328358 0.147575758,10.0683582 C0.147575758,13.2337313 1.67363636,16.0468657 4.04060606,17.8352239 L4.04060606,10.958806 C3.88393939,10.7149254 3.57181818,10.6020896 3.28515152,10.7047761 C2.80151515,10.878209 2.46333333,11.2698507 2.34151515,11.7262687 C2.33969697,11.7331343 2.33636364,11.7423881 2.33636364,11.7423881 C2.31454545,11.8167164 2.2569697,11.8597015 2.18151515,11.8597015 C2.13757576,11.8597015 2.09787879,11.8414925 2.06909091,11.8131343 C1.66393939,11.3423881 1.41878788,10.7343284 1.41878788,10.0686567 C1.41878788,9.40179104 1.66484848,8.79283582 2.07121212,8.32179104 C2.1,8.29492537 2.13878788,8.27761194 2.18151515,8.27761194 C2.25636364,8.27761194 2.31909091,8.32865672 2.33606061,8.39701493 L2.33666667,8.3958209 C2.33030303,8.37074627 2.32454545,8.34567164 2.31939394,8.32029851 C2.41848485,8.81432836 2.76939394,9.24746269 3.28515152,9.43283582" id="Fill-4" sketch:type="MSShapeGroup"></path>
                <path d="M19.0951515,10.7047761 C18.6066667,10.88 18.2666667,11.2731343 18.1478788,11.7346269 C18.1472727,11.7346269 18.1466667,11.738806 18.1460606,11.738806 C18.129697,11.8083582 18.0666667,11.8597015 17.9918182,11.8597015 C17.9357576,11.8597015 17.8863636,11.8313433 17.8581818,11.7877612 C17.4660606,11.321194 17.2284848,10.7223881 17.2284848,10.0686567 C17.2284848,9.41492537 17.4660606,8.81641791 17.8581818,8.34955224 C17.8863636,8.30626866 17.9357576,8.27761194 17.9918182,8.27761194 C18.0651515,8.27761194 18.1263636,8.32746269 18.1445455,8.39402985 C18.1451515,8.39402985 18.1454545,8.39880597 18.1460606,8.39820896 C18.2636364,8.86179104 18.6051515,9.25671642 19.0951515,9.43283582 C19.4254545,9.55104478 19.7906061,9.38358209 19.9106061,9.05820896 C19.9260606,9.01641791 19.9363636,8.97402985 19.9424242,8.93223881 C19.6257576,6.23522388 18.1957576,3.87283582 16.1163636,2.30179104 L16.1163636,17.8352239 C18.1954545,16.2644776 19.6257576,13.9020896 19.9424242,11.2053731 C19.9363636,11.1629851 19.9260606,11.120597 19.9106061,11.079403 C19.7906061,10.7540299 19.4254545,10.5862687 19.0951515,10.7047761" id="Fill-5" sketch:type="MSShapeGroup"></path>
            </g>
        </g>
    </g>
</svg>