<?xml version="1.0" encoding="UTF-8" standalone="no"?>
<svg width="24px" height="24px" viewBox="0 0 24 24" version="1.1" xmlns="http://www.w3.org/2000/svg" xmlns:xlink="http://www.w3.org/1999/xlink" xmlns:sketch="http://www.bohemiancoding.com/sketch/ns">
    <!-- Generator: Sketch 3.3.3 (12072) - http://www.bohemiancoding.com/sketch -->
    <title>中国建设银行@0.5x</title>
    <desc>Created with Sketch.</desc>
    <defs></defs>
    <g id="24*24" stroke="none" stroke-width="1" fill="none" fill-rule="evenodd" sketch:type="MSPage">
        <g id="中国建设银行" sketch:type="MSArtboardGroup" fill="#193E7E">
            <path d="M11.2507458,2.74045741 C11.2507458,2.74045741 13.031709,1.36381824 16.0943798,2.36467708 C16.0943798,2.36467708 17.1252389,2.74045741 18.3129546,3.8036408 L22,7.68303811 L20.0316634,9.65420455 L14.4061878,3.92890091 C14.4061878,3.92890091 13.4693206,2.77161969 11.2507458,2.74045741 L11.2507458,2.74045741 Z M19.3761615,10.3422186 L17.0635948,12.5944565 C17.0635948,12.5944565 16.6882376,13.1266593 16.3757451,12.6256188 L12.125969,8.46515003 C12.125969,8.46515003 11.7506118,7.96472061 11.4692465,8.40282548 L7.18834318,12.7820412 C7.18834318,12.7820412 6.90697785,13.2201461 7.25059755,13.4077307 L11.4381193,17.5999728 C11.4381193,17.5999728 11.781739,18.1627268 12.0948418,17.7252329 L16.4379995,13.3454062 C16.4379995,13.3454062 16.5631186,12.9696258 17.2509683,13.0637237 L21.6875075,13.0637237 C21.6875075,13.0637237 21.8761016,17.5688105 18.4380736,20.3838024 C18.4380736,20.3838024 13.9704072,24.857727 7.84506573,22.1044486 C7.84506573,22.1044486 1.93883517,20.0397954 2.0004792,12.3757096 C2.0004792,12.3757096 2.15794613,7.24493323 6.81420664,4.52342817 C6.81420664,4.52342817 10.2198868,1.98950777 12.9377171,3.86657637 L19.3761615,10.3422186 L19.3761615,10.3422186 Z" sketch:type="MSShapeGroup"></path>
        </g>
    </g>
</svg>