<?xml version="1.0" encoding="UTF-8" standalone="no"?>
<svg width="24px" height="24px" viewBox="0 0 24 24" version="1.1" xmlns="http://www.w3.org/2000/svg" xmlns:xlink="http://www.w3.org/1999/xlink" xmlns:sketch="http://www.bohemiancoding.com/sketch/ns">
    <!-- Generator: Sketch 3.3.3 (12072) - http://www.bohemiancoding.com/sketch -->
    <title>中国银行@0.5x</title>
    <desc>Created with Sketch.</desc>
    <defs></defs>
    <g id="24*24" stroke="none" stroke-width="1" fill="none" fill-rule="evenodd" sketch:type="MSPage">
        <g id="中国银行" sketch:type="MSArtboardGroup" fill="#A42A2F">
            <path d="M11.9192284,2.00920208 C11.9192284,2.00920208 16.2722182,1.63818006 19.6662903,5.60793284 C19.6662903,5.60793284 21.860958,8.01988055 21.9899849,11.5631712 C21.9899849,11.5631712 22.1747416,14.2346516 20.9571644,16.5162237 C19.7395873,18.7977959 18.4117618,20.0040744 16.2352669,21.0982542 C14.058772,22.1930433 10.5544516,22.3410866 8.24832413,21.2651837 C5.94280238,20.1892808 4.52229569,19.0579378 3.17569168,16.6088269 C3.17569168,16.6088269 1.36810449,13.4919983 2.2355525,9.87499062 C2.2355525,9.87499062 2.45665482,7.72318478 4.41144165,5.38556333 C4.41144165,5.38556333 7.27062783,1.86115881 11.9192284,2.00920208 L11.9192284,2.00920208 Z M13.007173,4.23594339 C13.007173,4.23594339 15.3133005,4.42114978 17.1760118,6.14649353 C19.0387232,7.87122805 19.5184849,9.5965718 19.7214145,10.5244315 C19.924344,11.4516819 20.0715436,14.104276 18.5965185,16.3675712 C17.1202819,18.6308665 14.3168257,19.6702155 13.007173,19.7810956 L13.007173,16.1452017 L14.7414633,16.1452017 C14.7414633,16.1452017 16.5860018,15.7741797 16.6962501,13.8447434 L16.6962501,9.96759381 C16.6962501,9.96759381 16.4012451,8.01988055 14.353777,7.92727735 L13.007173,7.92727735 L13.007173,4.23594339 L13.007173,4.23594339 Z M10.9784835,4.23533416 L10.9784835,7.92727735 L9.42894995,7.92727735 C9.42894995,7.92727735 7.32575197,8.05704367 7.25245504,10.3940559 L7.25245504,13.8081895 C7.25245504,13.8081895 7.30757918,15.903946 9.48407409,16.1452017 L10.9784835,16.1452017 L10.9784835,19.7810956 C10.9784835,19.7810956 7.32575197,19.577003 5.31584101,16.0525985 C5.31584101,16.0525985 3.58155074,13.5663246 4.30119337,10.4689914 C5.02023023,7.37043972 6.6987906,6.12760736 7.03135272,5.81202541 C7.36270332,5.4970527 9.51193904,4.21157413 10.9784835,4.23533416 L10.9784835,4.23533416 Z M9.63187947,10.0236431 L14.1877988,10.0236431 C14.1877988,10.0236431 14.5748793,9.94931687 14.6118307,10.375779 L14.6118307,13.5480476 C14.6118307,13.5480476 14.7045119,14.048836 14.3349984,13.9751189 L9.72395496,13.9751189 C9.72395496,13.9751189 9.35565301,14.0677221 9.29992311,13.6412601 L9.29992311,10.375779 C9.29992311,10.375779 9.35504725,10.0236431 9.63187947,10.0236431 L9.63187947,10.0236431 Z" sketch:type="MSShapeGroup"></path>
        </g>
    </g>
</svg>