<?xml version="1.0" encoding="UTF-8" standalone="no"?>
<svg width="24px" height="24px" viewBox="0 0 24 24" version="1.1" xmlns="http://www.w3.org/2000/svg" xmlns:xlink="http://www.w3.org/1999/xlink" xmlns:sketch="http://www.bohemiancoding.com/sketch/ns">
    <!-- Generator: Sketch 3.3.3 (12072) - http://www.bohemiancoding.com/sketch -->
    <title>中国农业银行@0.5x</title>
    <desc>Created with Sketch.</desc>
    <defs></defs>
    <g id="24*24" stroke="none" stroke-width="1" fill="none" fill-rule="evenodd" sketch:type="MSPage">
        <g id="中国农业银行" sketch:type="MSArtboardGroup" fill="#238C71">
            <path d="M11.094818,2.04164695 L11.5576844,2 L12.4840494,2 L12.905182,2.04164695 L12.905182,8.17636851 L12.8634481,8.21864647 L12.8217142,8.30257138 L12.7793481,8.30257138 L12.7376142,8.34421833 L12.6105157,8.38649629 L11.4318505,8.38649629 L11.3060166,8.34421833 L11.2630181,8.30257138 L11.1789181,8.30257138 L11.1789181,8.21864647 L11.1365519,8.17636851 L11.094818,8.00851869 L11.094818,2.04164695 L11.094818,2.04164695 Z M15.3472446,11.9580375 L15.3472446,14.9408424 L15.3048784,15.0247673 L15.2631446,15.0670453 L15.2207784,15.1509702 L15.1373107,15.1509702 L15.0532107,15.1932481 L14.8837459,15.2348951 L13.1151159,15.2348951 L13.1151159,19.9410002 L13.4945145,19.8564442 L13.8732808,19.8147973 L14.2109457,19.6885944 L14.5479781,19.6046695 L14.7161782,19.5630226 L14.8837459,19.4784666 L15.2207784,19.3528948 L15.5584432,19.1844139 L15.8531095,19.0165641 L16.1895096,18.8480833 L16.4841759,18.6802335 L16.736476,18.4701057 L17.0317746,18.2606089 L17.578741,17.7980754 L17.8316735,17.5456697 L18.0416074,17.2938949 L18.2951722,16.9998422 L18.5051061,16.7480675 L18.7163047,16.4533838 L18.8838724,16.1593311 L19.0520725,15.8230005 L19.2215372,15.5295788 L19.3891049,15.1932481 L19.5149388,14.8569175 L19.7261374,14.1848872 L19.8526036,13.8485566 L19.8943375,13.470579 L19.9784375,13.1342483 L20.021436,12.7556397 L20.0638022,11.9996845 L20.021436,11.4115791 L19.9784375,11.1175264 L19.9784375,10.8234737 L19.8526036,10.2353684 L19.6844036,9.64726298 L19.6003035,9.39485723 L19.5149388,9.14245149 L19.3050049,8.59662407 L19.0103386,8.0924436 L18.7580385,7.58826313 L18.421006,7.16800757 L18.0416074,6.70610506 L17.6628411,6.2858495 L17.2417086,5.9078719 L16.8218407,5.57154125 L16.3570774,5.2352106 L15.8531095,4.94115791 L15.3472446,4.68875217 L15.3472446,11.5794289 L15.3048784,11.6639849 L15.2631446,11.7056318 L15.2207784,11.7895567 L15.1373107,11.8318347 L15.0532107,11.8318347 L14.8837459,11.8741126 L12.4005817,11.8741126 L12.3582156,11.9157596 L12.3164817,11.9580375 L12.3164817,9.0591576 L12.3582156,8.97460167 L12.4005817,8.89067676 L12.4840494,8.84902982 L13.6216131,8.84902982 L13.7898131,8.80675185 L13.915647,8.76447389 L13.9997471,8.72282694 L14.0844794,8.59662407 L14.0844794,2.21012778 L14.9261121,2.46253352 L15.3472446,2.58810538 L15.7260109,2.71430825 L16.1471434,2.88215807 L16.5265421,3.09228585 L16.9059408,3.26076668 L17.2417086,3.47089446 L17.6204749,3.72266919 L17.9575074,3.93279697 L18.2951722,4.18520271 L18.5892061,4.47862439 L18.9262386,4.77330809 L19.2215372,5.06736078 L19.7685036,5.65546616 L20.021436,5.99179681 L20.2737361,6.32749645 L20.48367,6.70610506 L20.6948686,7.0418047 L21.1160011,7.79839091 L21.2835689,8.17636851 L21.4112998,8.59662407 L21.6629675,9.39485723 L21.7888014,9.81511279 L21.8741661,10.2353684 L21.9159,10.6556239 L22,11.1175264 L22,12.503865 L21.9159,13.5122259 L21.8311676,14.0164064 L21.7047014,14.4789399 L21.5788675,14.9831204 L21.4112998,15.4450229 L21.241835,15.8652784 L21.0319011,16.327812 L20.8207025,16.7480675 L20.5684024,17.1676921 L20.31547,17.5879476 L20.021436,17.9659252 L19.7261374,18.3445338 L19.4314711,18.7225114 L19.095071,19.0588421 L18.7580385,19.3945417 L17.9998735,19.9832781 L17.6204749,20.2773308 L17.1993424,20.5291055 L16.7782099,20.7815113 L16.3570774,20.991008 L15.8954757,21.2011358 L15.4743432,21.3696167 L14.967846,21.5374665 L14.5056119,21.6636693 L14.0427456,21.7898722 L13.5362484,21.8737971 L13.0310158,21.9154441 L12.5264156,21.957722 L12.0211831,22 L11.5159506,21.957722 L11.010718,21.9154441 L10.5054855,21.8737971 L10.0002529,21.7898722 L9.49565272,21.6636693 L9.03215404,21.5374665 L8.56928768,21.3696167 L8.10578899,21.2011358 L7.68465649,20.991008 L7.26352398,20.7815113 L6.84239148,20.5291055 L6.42125897,20.2773308 L6.04249265,19.9832781 L5.28432767,19.3945417 L4.94792753,19.0588421 L4.61089506,18.7225114 L4.27386259,18.3445338 L3.97982864,17.9659252 L3.7268962,17.5879476 L3.4745961,17.1676921 L3.22166366,16.7480675 L3.01172974,16.327812 L2.80053116,15.8652784 L2.63233109,15.4450229 L2.46349869,14.9831204 L2.33703247,14.4789399 L2.21119858,14.0164064 L2.12709855,13.5122259 L2.04236618,13.0080454 L2,12.503865 L2,11.537782 L2.04236618,11.1175264 L2.08410003,10.6556239 L2.16946473,10.2353684 L2.33703247,9.39485723 L2.59059724,8.59662407 L2.75816498,8.17636851 L2.92636504,7.79839091 L3.09582978,7.42041331 L3.3057637,7.0418047 L3.51696228,6.70610506 L3.76863005,6.32749645 L4.02219482,5.99179681 L4.27386259,5.65546616 L4.52679503,5.36141347 L4.82082899,5.06736078 L5.41142622,4.47862439 L6.0842265,3.97444392 L6.75892377,3.47089446 L7.13769009,3.26076668 L7.51582409,3.09228585 L7.89459041,2.88215807 L8.27398906,2.71430825 L8.65338771,2.58810538 L9.49565272,2.33633065 L9.91678523,2.21012778 L9.91678523,8.59662407 L9.95851908,8.68118 L10.0002529,8.72282694 L10.1267192,8.76447389 L10.252553,8.80675185 L10.3796516,8.84902982 L11.5159506,8.84902982 L11.6000506,8.89067676 L11.6841506,8.97460167 L11.6841506,11.9580375 L11.6000506,11.8741126 L9.11625407,11.8741126 L8.94678934,11.8318347 L8.86332164,11.8318347 L8.82095545,11.7895567 L8.73685542,11.7056318 L8.69512157,11.6639849 L8.69512157,11.5794289 L8.65338771,11.4538571 L8.65338771,4.68875217 L8.14815517,4.94115791 L7.68465649,5.2352106 L6.75892377,5.9078719 L6.33779127,6.2858495 L5.95839261,6.70610506 L5.28432767,7.63054109 L4.99029372,8.0924436 L4.73672895,8.59662407 L4.61089506,8.84902982 L4.52679503,9.14245149 L4.31559645,9.68890992 L4.18976256,10.2353684 L4.06392867,10.8234737 L4.02219482,11.1175264 L4.02219482,11.4115791 L3.97982864,11.9996845 L3.97982864,12.3776621 L4.02219482,12.7556397 L4.06392867,13.0919703 L4.10566252,13.470579 L4.18976256,13.8485566 L4.27386259,14.1848872 L4.39969648,14.5205868 L4.442695,14.6884367 L4.52679503,14.8569175 L4.77909513,15.5295788 L5.1161276,16.1593311 L5.53726011,16.7057896 L5.74719403,16.9998422 L5.95839261,17.2938949 L6.21006039,17.5456697 L6.46362515,17.7980754 L6.96885769,18.2606089 L7.26352398,18.4701057 L7.55755794,18.6802335 L8.14815517,19.0165641 L8.48392298,19.1844139 L8.7792216,19.3528948 L9.11625407,19.4784666 L9.45328654,19.6046695 L9.83142053,19.6885944 L10.168453,19.8147973 L10.5054855,19.8564442 L10.8848841,19.9410002 L10.8848841,15.2348951 L9.11625407,15.2348951 L8.94678934,15.1932481 L8.90505549,15.1509702 L8.82095545,15.1509702 L8.73685542,15.0670453 L8.69512157,15.0247673 L8.69512157,14.9408424 L8.65338771,14.8146395 L8.65338771,11.9580375 L8.69512157,11.9996845 L8.73685542,12.0419625 L8.86332164,12.1258874 L8.98915552,12.1681653 L9.11625407,12.2098123 L11.5159506,12.2098123 L11.6000506,12.2520902 L11.6841506,12.3360151 L11.6841506,15.1932481 L12.3164817,15.1932481 L12.3164817,12.4199401 L12.3582156,12.3360151 L12.4005817,12.2520902 L12.4840494,12.2098123 L14.8837459,12.2098123 L15.0108445,12.1681653 L15.1373107,12.1258874 L15.2631446,12.0419625 L15.3472446,11.9580375 L15.3472446,11.9580375 Z" sketch:type="MSShapeGroup"></path>
        </g>
    </g>
</svg>