<?xml version="1.0" encoding="UTF-8" standalone="no"?>
<svg width="24px" height="24px" viewBox="0 0 24 24" version="1.1" xmlns="http://www.w3.org/2000/svg" xmlns:xlink="http://www.w3.org/1999/xlink" xmlns:sketch="http://www.bohemiancoding.com/sketch/ns">
    <!-- Generator: Sketch 3.3.3 (12072) - http://www.bohemiancoding.com/sketch -->
    <title>中国农业发展银行@0.5x</title>
    <desc>Created with Sketch.</desc>
    <defs></defs>
    <g id="24*24" stroke="none" stroke-width="1" fill="none" fill-rule="evenodd" sketch:type="MSPage">
        <g id="中国农业发展银行" sketch:type="MSArtboardGroup" fill="#5EB453">
            <path d="M12.0023736,23 C12.0783284,20.289644 14.0151766,18.1059871 16.3800619,18.105178 C13.968496,18.1035599 12.0023736,15.8333333 12,13.0493528 C11.9984176,15.8325243 10.031504,18.1035599 7.61993814,18.105178 C7.61835575,18.0509709 7.61756455,17.9959547 7.61756455,17.9417476 C7.61756455,15.1553398 9.58526937,12.8826861 11.9976264,12.881877 C11.9992088,12.9271845 12,12.9724919 12,13.0194175 C12,12.9724919 12.0007912,12.9271845 12.0023736,12.881877 C14.4147306,12.8834951 16.3824354,15.1553398 16.3824354,17.9417476 C16.3824354,17.9959547 16.3816442,18.0509709 16.3800619,18.105178 C16.3816442,18.1585761 16.3824354,18.2135922 16.3824354,18.2677994 C16.3824354,20.4247573 15.202762,22.2742718 13.5491621,23 L23,23 L12,1 L1,23 L10.4500468,23 C8.79723801,22.2742718 7.61756455,20.4247573 7.61756455,18.2677994 C7.61756455,18.2135922 7.61835575,18.1585761 7.61993814,18.105178 C9.98482342,18.1059871 11.9216716,20.289644 11.9976264,23 L12.0023736,23" sketch:type="MSShapeGroup"></path>
        </g>
    </g>
</svg>