<?xml version="1.0" encoding="UTF-8" standalone="no"?>
<svg width="24px" height="24px" viewBox="0 0 24 24" version="1.1" xmlns="http://www.w3.org/2000/svg" xmlns:xlink="http://www.w3.org/1999/xlink" xmlns:sketch="http://www.bohemiancoding.com/sketch/ns">
    <!-- Generator: Sketch 3.3.3 (12072) - http://www.bohemiancoding.com/sketch -->
    <title>中国工商银行@0.5x</title>
    <desc>Created with Sketch.</desc>
    <defs></defs>
    <g id="24*24" stroke="none" stroke-width="1" fill="none" fill-rule="evenodd" sketch:type="MSPage">
        <g id="中国工商银行" sketch:type="MSArtboardGroup" fill="#D9222A">
            <path d="M3.97932619,12.0338183 L4.04760082,12.8531138 L4.11587545,13.6041348 L4.32069934,14.4234303 L4.59315978,15.1055385 L4.93517101,15.8565595 L5.34481879,16.4710311 L5.54900459,16.8124043 L5.82210311,17.0855028 L6.30002552,17.6999745 L6.91449719,18.1772588 L7.52896886,18.6551812 L8.21107708,19.064829 L8.89382338,19.4062021 L9.64484431,19.6793007 L10.3958652,19.8841246 L10.805513,19.9523992 L11.2145227,20.0206738 L12.8531138,20.0206738 L13.6041348,19.8841246 L14.4227922,19.6793007 L15.1061766,19.4062021 L15.8565595,19.064829 L16.4710311,18.6551812 L16.8124043,18.4503573 L17.0855028,18.1772588 L17.6999745,17.6999745 L18.1778969,17.0855028 L18.6551812,16.4710311 L19.064829,15.8565595 L19.4062021,15.1055385 L19.6793007,14.4234303 L19.8841246,13.6041348 L19.9523992,13.2621235 L20.0206738,12.8531138 L20.0206738,11.2151608 L19.8841246,10.3958652 L19.6793007,9.64484431 L19.4062021,8.89382338 L19.064829,8.21171516 L18.4503573,7.18759571 L18.1778969,6.91449719 L17.6999745,6.36830015 L17.0855028,5.82210311 L16.4710311,5.3441807 L15.8565595,4.93517101 L15.1061766,4.59379786 L14.4227922,4.32069934 L13.6041348,4.11523737 L13.2627616,4.04760082 L12.8531138,4.04760082 L12.4434661,3.97932619 L12.0338183,3.97932619 L11.2145227,4.04760082 L10.3958652,4.11523737 L9.64484431,4.32069934 L8.89382338,4.59379786 L8.21107708,4.93517101 L7.52896886,5.3441807 L7.18759571,5.54964267 L6.91449719,5.82210311 L6.30002552,6.36830015 L5.82210311,6.91449719 L5.34481879,7.52896886 L4.93517101,8.21171516 L4.59315978,8.89382338 L4.32069934,9.64484431 L4.11587545,10.3958652 L4.04760082,10.805513 L4.04760082,11.2151608 L3.97932619,11.6248086 L3.97932619,12.0338183 L3.97932619,12.0338183 Z M2,12.0338183 L2.06763655,11.0096988 L2.13591118,10.4641399 L2.20418581,9.98621746 L2.61383359,8.55245023 L2.81865748,8.14280245 L3.02348137,7.66551812 L3.22830526,7.25523226 L3.70622767,6.43657478 L3.97932619,6.026927 L4.32069934,5.61727922 L4.93517101,4.93517101 L5.27590607,4.59379786 L5.6179173,4.32069934 L6.02756508,3.97932619 L6.43657478,3.70622767 L6.84622256,3.43312915 L7.25587034,3.22830526 L8.14280245,2.81865748 L9.03037264,2.47728433 L9.50829505,2.34073507 L9.98621746,2.20418581 L10.4641399,2.13591118 L11.0103369,2.06763655 L12.0338183,2 L13.0579377,2.06763655 L13.5358601,2.13591118 L14.0137825,2.20418581 L14.9689893,2.47728433 L15.4469117,2.61447167 L15.9248341,2.81865748 L16.3344819,3.02348137 L16.7441297,3.22830526 L17.6316998,3.70622767 L17.9724349,3.97932619 L18.3820827,4.32069934 L19.064829,4.93517101 L19.4062021,5.27590607 L19.7475753,5.61727922 L20.0206738,6.026927 L20.5668709,6.84622256 L20.7710567,7.25523226 L21.2496172,8.14280245 L21.5903522,9.03037264 L21.6586269,9.50829505 L21.7951761,9.98621746 L21.8634507,10.4641399 L21.9317254,11.0096988 L22,12.0338183 L21.9317254,13.0579377 L21.7951761,14.0137825 L21.5903522,14.9689893 L21.3855283,15.4469117 L21.2496172,15.9248341 L21.0441552,16.3344819 L20.7710567,16.7441297 L20.2937723,17.6316998 L20.0206738,17.9724349 L19.7475753,18.3820827 L19.064829,19.064829 L18.7234558,19.4062021 L18.3820827,19.7475753 L17.9724349,20.0206738 L17.6316998,20.2937723 L17.2220521,20.5668709 L16.7441297,20.7716947 L15.9248341,21.2496172 L14.9689893,21.5903522 L14.491705,21.7269015 L14.0137825,21.7951761 L13.5358601,21.8634507 L13.0579377,21.9317254 L12.0338183,22 L11.0103369,21.9317254 L10.4641399,21.8634507 L9.98621746,21.7951761 L9.03037264,21.5903522 L8.55308831,21.3855283 L8.14280245,21.2496172 L7.66551812,21.0447933 L7.25587034,20.7716947 L6.43657478,20.2937723 L6.02756508,20.0206738 L5.6179173,19.7475753 L4.93517101,19.064829 L4.59315978,18.7240939 L4.32069934,18.3820827 L3.97932619,17.9724349 L3.70622767,17.6316998 L3.43312915,17.221414 L3.22830526,16.7441297 L2.81865748,15.9248341 L2.47792241,14.9689893 L2.34073507,14.491705 L2.20418581,14.0137825 L2.06763655,13.0579377 L2,12.0338183 L2,12.0338183 Z M17.6316998,12.7165646 L17.6316998,17.1537774 L12.7165646,17.1537774 L12.7165646,15.7200102 L16.0613834,15.7200102 L16.0613834,14.0820572 L12.7165646,14.0820572 L12.7165646,9.64484431 L16.0613834,9.64484431 L16.0613834,8.14280245 L12.7165646,8.14280245 L12.7165646,6.7096733 L17.6316998,6.7096733 L17.6316998,11.1468862 L14.2868811,11.1468862 L14.2868811,12.6482899 L17.6316998,12.6482899 L17.6316998,12.7165646 L17.6316998,12.7165646 Z M6.36830015,12.7165646 L6.36830015,17.1537774 L11.2827973,17.1537774 L11.2827973,15.7200102 L7.93861664,15.7200102 L7.93861664,14.0820572 L11.2827973,14.0820572 L11.2827973,9.64484431 L7.93861664,9.64484431 L7.93861664,8.14280245 L11.2827973,8.14280245 L11.2827973,6.7096733 L6.36830015,6.7096733 L6.36830015,11.1468862 L9.71311894,11.1468862 L9.71311894,12.6482899 L6.36830015,12.6482899 L6.36830015,12.7165646 L6.36830015,12.7165646 Z" sketch:type="MSShapeGroup"></path>
        </g>
    </g>
</svg>