<?xml version="1.0" encoding="UTF-8" standalone="no"?>
<svg width="24px" height="24px" viewBox="0 0 24 24" version="1.1" xmlns="http://www.w3.org/2000/svg" xmlns:xlink="http://www.w3.org/1999/xlink" xmlns:sketch="http://www.bohemiancoding.com/sketch/ns">
    <!-- Generator: Sketch 3.3.3 (12072) - http://www.bohemiancoding.com/sketch -->
    <title>中国邮政@0.5x</title>
    <desc>Created with Sketch.</desc>
    <defs></defs>
    <g id="24*24" stroke="none" stroke-width="1" fill="none" fill-rule="evenodd" sketch:type="MSPage">
        <g id="中国邮政" sketch:type="MSArtboardGroup" fill="#1D7842">
            <path d="M3.92706965,13.1875063 L3.82588699,13.7734007 L6.86925099,13.7734007 L7.00459921,13.1875063 L3.92706965,13.1875063 L3.92706965,13.1875063 Z M11.6714849,13.7734007 L11.7726675,13.1875063 L8.32325887,13.1875063 L8.18791064,13.7734007 L11.6714849,13.7734007 L11.6714849,13.7734007 Z M13.5985545,10.8124937 L13.1254928,13.1875063 L12.9901445,13.7734007 L12.5164258,16.1484132 L7.71484888,16.1484132 L7.61366623,16.6988596 L13.2266754,16.6988596 L13.9704336,13.1875063 L14.4441524,10.8124937 L21.173456,10.8124937 L20.6662286,13.1875063 L15.2897503,13.1875063 L14.0722733,19.0738722 L7.10578187,19.0738722 L7.00459921,19.6249875 L14.8160315,19.6249875 L15.5597898,16.1484132 L16.0335085,13.7734007 L20.565046,13.7734007 L20.0913272,16.1484132 L16.8791064,16.1484132 L16.1688568,19.6249875 L15.6616294,22 L5.17805519,22 L6.39618922,16.1484132 L2,16.1484132 L2.50722733,13.7734007 L2.60840999,13.1875063 L3.11563732,10.8124937 L7.47766097,10.8124937 L8.69579501,4.9602381 L13.4973719,4.9602381 L14.1057819,2 L23,2 L22.4921156,4.37501254 L14.9178712,4.37501254 L14.8160315,4.9602381 L14.3429698,7.33591947 L9.54073587,7.33591947 L9.40538765,7.88636592 L15.0525624,7.88636592 L15.1544021,7.33591947 L15.6616294,4.9602381 L22.390933,4.9602381 L21.8837057,7.33591947 L16.5065703,7.33591947 L15.8981603,10.2620473 L8.93232589,10.2620473 L8.79697766,10.8124937 L13.5985545,10.8124937 L13.5985545,10.8124937 Z" sketch:type="MSShapeGroup"></path>
        </g>
    </g>
</svg>