<?xml version="1.0" encoding="UTF-8" standalone="no"?>
<svg width="24px" height="24px" viewBox="0 0 24 24" version="1.1" xmlns="http://www.w3.org/2000/svg" xmlns:xlink="http://www.w3.org/1999/xlink" xmlns:sketch="http://www.bohemiancoding.com/sketch/ns">
    <!-- Generator: Sketch 3.3.3 (12072) - http://www.bohemiancoding.com/sketch -->
    <title>中国光大银行@0.5x</title>
    <desc>Created with Sketch.</desc>
    <defs></defs>
    <g id="24*24" stroke="none" stroke-width="1" fill="none" fill-rule="evenodd" sketch:type="MSPage">
        <g id="中国光大银行" sketch:type="MSArtboardGroup" fill="#F8E514">
            <path d="M4,1 L14.9734357,1 C14.9734357,1 17.0426815,1 17.4331221,1.60223613 L15.402295,1.60223613 L15.402295,2.2439481 L18.5258197,2.28342394 C18.5258197,2.28342394 19.0333032,2.64513284 19.0333032,2.92513592 L15.402295,2.9655298 L15.402295,3.56684789 L19.4246372,3.56684789 C19.4246372,3.56684789 19.893702,3.80829317 19.7775526,4.32974152 L7.24235452,4.32974152 L7.24235452,5.01276542 L19.9705393,4.97237154 C19.9705393,4.97237154 20.0491635,5.49381989 20.0491635,5.6544774 L7.24235452,5.6544774 L7.24235452,6.33566521 L20.0875821,6.29618937 C20.0875821,6.29618937 20.1662063,6.69737411 19.9705393,6.97737719 L7.24235452,7.09855885 L7.24235452,7.74027082 L19.7775526,7.65948304 C19.7775526,7.65948304 19.7775526,8.18184944 19.4630559,8.34250695 L7.24235452,8.42237668 L7.24235452,9.02461281 L19.0735087,8.94382503 C19.0735087,8.94382503 19.0333032,9.585537 18.6044439,9.70671866 L7.24235452,9.74619451 L7.24235452,10.3879065 L17.6672078,10.3080367 C17.6672078,10.3080367 17.4331221,11.1104062 15.8311542,11.0296185 L13.8807381,10.9901426 L13.8807381,11.5923787 L17.0426815,11.6327726 C17.0426815,11.6318546 18.3703583,11.6327726 18.5660253,12.1936968 L13.8807381,12.3148785 L13.8807381,12.9161966 L19.3862186,12.9161966 C19.3862186,12.9161966 19.893702,13.3173813 19.893702,13.5579085 L7.24235452,13.6377783 L7.24235452,14.360278 L20.1662063,14.2400144 C20.1662063,14.2400144 20.6736897,14.6008053 20.6736897,14.9625141 L7.24235452,15.0414658 L7.24235452,15.64462 L20.8693568,15.64462 C20.8693568,15.64462 21.0248182,15.8447534 20.947981,16.2064622 L7.24235452,16.3267259 L7.24235452,16.928044 L20.947981,16.928044 C20.947981,16.928044 21.0650238,17.2897528 20.947981,17.5697559 L7.24235452,17.6505437 L7.24235452,18.2922557 L20.8309381,18.2922557 C20.8309381,18.2922557 20.947981,18.6934404 20.6361646,19.0147554 L7.24235452,19.0147554 L7.24235452,19.6564674 L20.3618733,19.6160735 C20.3618733,19.6160735 20.3234547,20.2587035 20.0491635,20.2981794 L15.402295,20.2981794 L15.402295,20.9802852 L19.4246372,20.9398913 C19.4246372,20.9398913 19.150346,21.5816033 18.8787351,21.6623911 L15.402295,21.702785 L15.402295,22.3839728 L17.745832,22.345415 C17.745832,22.345415 17.39381,23.1073906 14.3095974,22.987127 L4,22.9467331 L4,1" sketch:type="MSShapeGroup"></path>
        </g>
    </g>
</svg>