<?xml version="1.0" encoding="UTF-8" standalone="no"?>
<svg width="24px" height="24px" viewBox="0 0 24 24" version="1.1" xmlns="http://www.w3.org/2000/svg" xmlns:xlink="http://www.w3.org/1999/xlink" xmlns:sketch="http://www.bohemiancoding.com/sketch/ns">
    <!-- Generator: Sketch 3.3.3 (12072) - http://www.bohemiancoding.com/sketch -->
    <title>中国人民银行@0.5x</title>
    <desc>Created with Sketch.</desc>
    <defs></defs>
    <g id="24*24" stroke="none" stroke-width="1" fill="none" fill-rule="evenodd" sketch:type="MSPage">
        <g id="中国人民银行" sketch:type="MSArtboardGroup" fill="#D9222A">
            <path d="M13.8748776,3 L13.8748776,5.24736653 C13.8748776,5.24736653 15.7102462,4.65467025 15.6506237,6.72408439 L15.7102462,12.224105 L13.1055312,13.7008228 L13.1651538,10.0944166 C13.1838307,8.93198568 10.8161693,8.93055058 10.8355646,10.0944166 L10.8944688,13.7008228 L8.29047215,12.1057092 L8.34937635,6.72408439 C8.29047215,4.65467025 10.1251224,5.24736653 10.1251224,5.24736653 L10.1251224,3 L13.8748776,3 L13.8748776,3 Z M1,18.7444816 L2.94886698,17.6215159 C2.94886698,17.6215159 1.51792595,16.329926 3.34180108,15.3468825 L8.07999739,12.5448498 L10.6624437,14.0603154 L7.50604062,15.8118549 C6.48886567,16.3765667 7.67197806,18.4258895 8.67119441,17.8274528 L11.7679749,15.9733036 L11.6875204,19.0236086 L6.99242474,21.6627574 C5.2274538,22.7484105 4.82374453,20.8655594 4.82374453,20.8655594 L2.8755959,21.9892426 L1,18.7444816 L1,18.7444816 Z M21.1251224,21.9598231 L19.1762555,20.8361398 C19.1762555,20.8361398 18.7725462,22.718991 17.0075753,21.6326203 L12.2097564,18.9346324 L12.2320251,15.9438841 L15.3288056,17.7980332 C16.3273036,18.3957524 17.5118527,16.3471472 16.4939594,15.7824353 L13.3375563,14.0308958 L16.0227258,12.5749869 L20.6589173,15.3174629 C22.4820741,16.3005064 21.0518514,17.5920964 21.0518514,17.5920964 L23,18.7157796 L21.1251224,21.9598231 L21.1251224,21.9598231 Z" sketch:type="MSShapeGroup"></path>
        </g>
    </g>
</svg>