<?xml version="1.0" encoding="UTF-8" standalone="no"?>
<svg width="24px" height="24px" viewBox="0 0 24 24" version="1.1" xmlns="http://www.w3.org/2000/svg" xmlns:xlink="http://www.w3.org/1999/xlink" xmlns:sketch="http://www.bohemiancoding.com/sketch/ns">
    <!-- Generator: Sketch 3.3.3 (12072) - http://www.bohemiancoding.com/sketch -->
    <title>中国民生银行@0.5x</title>
    <desc>Created with Sketch.</desc>
    <defs></defs>
    <g id="24*24" stroke="none" stroke-width="1" fill="none" fill-rule="evenodd" sketch:type="MSPage">
        <g id="中国民生银行" sketch:type="MSArtboardGroup">
            <g sketch:type="MSLayerGroup" transform="translate(0.000000, 3.000000)">
                <path d="M9.95576471,12.7011481 L11.9992941,11.4935926 L12.1503529,11.5688889 L12.1503529,10.248037 L11.6209412,10.0221481 C11.6209412,10.0221481 3.67270588,10.3247407 4.35388235,4.81614815 C5.18752941,2.58962963 8.66894118,1.26807407 12.1503529,1.19348148 L12.1503529,0.0999259259 C7.836,0.211814815 1.81835294,1.38207407 0.682588235,5.26792593 C0.645176471,5.41851852 0.607058824,5.53181481 0.607058824,5.64581481 L0.607058824,6.17359259 C0.833647059,8.40081481 4.12658824,10.9651111 9.53929412,10.9651111 L6.62470588,12.7011481 L11.8101176,15.3421481 L12.1503529,15.1915556 L12.1503529,13.8327037 L12.0748235,13.8714074 L9.95576471,12.7011481 L9.95576471,12.7011481 Z M12.1503529,1.19348148 L12.1503529,0.0999259259 L12.2258824,0.0999259259 C16.1625882,-0.0147777778 23.9971765,1.42007407 23.9590588,5.8717037 L20.3251765,5.8717037 C19.7957647,2.51362963 15.936,1.07948148 12.1503529,1.19348148 L12.1503529,1.19348148 Z M12.1503529,11.5688889 L14.3463529,12.7011481 L12.1503529,13.8327037 L12.1503529,15.1915556 L17.6385882,12.5125556 L12.1503529,10.248037 L12.1503529,11.5688889 L12.1503529,11.5688889 Z" id="Fill-1" fill="#50A951" sketch:type="MSShapeGroup"></path>
                <path d="M11.9611765,17.3793704 L11.9611765,18.4736296 L11.8856471,18.4736296 C7.94964706,18.5489259 0.115058824,17.1534815 0.115058824,12.7011481 L3.78635294,12.7011481 C4.31647059,16.0219259 8.13882353,17.4553704 11.9611765,17.3793704 L11.9611765,17.3793704 Z M11.9611765,7.04266667 L9.76588235,5.9097037 L11.9611765,4.74014815 L11.9611765,3.4192963 L6.47364706,6.0602963 L11.9611765,8.36211111 L11.9611765,7.04266667 L11.9611765,7.04266667 Z M14.1564706,5.9097037 L12.1136471,7.07925926 L11.9611765,7.04266667 L11.9611765,8.36211111 L12.4538824,8.5507037 C12.4538824,8.5507037 20.4021176,8.28611111 19.7576471,13.7574074 C18.888,15.9832222 15.4432941,17.3047778 11.9611765,17.3793704 L11.9611765,18.4736296 C16.2762353,18.323037 22.2938824,17.1914815 23.4296471,13.3042222 C23.4670588,13.1909259 23.5051765,13.079037 23.5051765,12.927037 L23.5051765,12.4372593 C23.2785882,10.1727407 19.9475294,7.64433333 14.5729412,7.60774074 L17.4494118,5.9097037 L12.3021176,3.2307037 L11.9611765,3.4192963 L11.9611765,4.74014815 L12.0374118,4.70214815 L14.1564706,5.9097037 L14.1564706,5.9097037 Z" id="Fill-2" fill="#309BBF" sketch:type="MSShapeGroup"></path>
            </g>
        </g>
    </g>
</svg>