<?xml version="1.0" encoding="UTF-8" standalone="no"?>
<svg width="24px" height="24px" viewBox="0 0 24 24" version="1.1" xmlns="http://www.w3.org/2000/svg" xmlns:xlink="http://www.w3.org/1999/xlink" xmlns:sketch="http://www.bohemiancoding.com/sketch/ns">
    <!-- Generator: Sketch 3.3.3 (12072) - http://www.bohemiancoding.com/sketch -->
    <title>交通银行@0.5x</title>
    <desc>Created with Sketch.</desc>
    <defs></defs>
    <g id="24*24" stroke="none" stroke-width="1" fill="none" fill-rule="evenodd" sketch:type="MSPage">
        <g id="交通银行" sketch:type="MSArtboardGroup" fill="#292D78">
            <path d="M18.2888289,17.5 C17.0134805,17.5417062 15.8358896,17.5834123 14.5611844,17.6251185 C13.7540426,21.1030213 7.07952661,20.163981 7.82299745,15.7496445 C8.1966623,13.1351896 11.6837721,11.9928318 13.847298,13.9673578 C14.3232222,14.5114929 14.5560392,15.0171801 14.7091068,16.125 C15.7780069,16.0832938 17.2199287,16.0415877 18.2888289,15.9998815 C18.3428527,10.374763 12.0374996,7.51984597 7.30848476,10.2496445 C2.77627103,12.8667062 3.29914456,20.8384479 8.04938304,22.8748815 L8.04938304,23 C5.45881161,22.948519 2.61805838,20.9159953 2,18.5002962 L2.03472961,5.53163507 C4.09085097,4.11492891 6.36306768,2.41670616 8.41918904,1 C8.50086793,1.04170616 8.58383311,1.08341232 8.66615514,1.12511848 C8.524021,3.08009479 8.61341759,6.30385071 8.72725352,8.65633886 C10.0154647,7.38951422 10.8837049,6.06469194 13.1070429,5.62482227 C14.5406039,5.34135071 15.9117802,5.51208531 16.7774478,5.8125 C23.2738138,8.06723934 23.6783494,16.5726896 18.1653458,19.4999408 C18.0418628,19.4999408 17.773673,19.7462678 17.5691542,19.7873223 C17.5691542,19.7456161 17.6977824,19.5651066 17.7955398,19.3748223 C17.9595407,18.7498815 18.1241848,18.1249408 18.2888289,17.5" sketch:type="MSShapeGroup"></path>
        </g>
    </g>
</svg>