<?xml version="1.0" encoding="UTF-8" standalone="no"?>
<svg width="24px" height="24px" viewBox="0 0 24 24" version="1.1" xmlns="http://www.w3.org/2000/svg" xmlns:xlink="http://www.w3.org/1999/xlink" xmlns:sketch="http://www.bohemiancoding.com/sketch/ns">
    <!-- Generator: Sketch 3.3.3 (12072) - http://www.bohemiancoding.com/sketch -->
    <title>兴业银行@0.5x</title>
    <desc>Created with Sketch.</desc>
    <defs></defs>
    <g id="24*24" stroke="none" stroke-width="1" fill="none" fill-rule="evenodd" sketch:type="MSPage">
        <g id="兴业银行" sketch:type="MSArtboardGroup" fill="#174489">
            <path d="M23.999356,12.4212604 C23.999356,9.39639413 19.8266335,6.94762074 14.6849984,6.94762074 C10.5715782,6.94762074 7.07960059,8.51756682 5.84648732,10.6966434 L5.84967923,10.6935599 C5.73216654,10.8976496 5.67272422,11.1174872 5.67272422,11.3472911 C5.67272422,11.8929619 6.01829048,12.3746224 6.56340713,12.6886721 L11.2855021,15.3703055 C11.5301592,15.4992897 11.821043,15.5786625 12.1349422,15.5786625 C12.4482254,15.5786625 12.7405371,15.4992897 12.9858102,15.3703055 L17.4633601,12.8299354 C17.7643516,12.6540928 17.9565942,12.3865159 17.9565942,12.0868925 C17.9565942,11.7931609 17.7726394,11.5358256 17.4904354,11.3605061 L15.8232223,10.4153008 L12.1349422,12.5109024 L9.34468079,10.9247954 C10.4202705,9.96747633 12.4296059,9.32577629 14.733157,9.32577629 C18.1734761,9.32577629 20.9621696,10.7617825 20.9621696,12.5361211 C20.8903236,15.2790391 16.7981269,17.4051454 11.8252709,17.2769596 C6.84796312,17.1483057 2.87255109,14.8189357 2.94716899,12.0728515 L2.94551703,12.0728515 C2.98107603,8.45088596 7.8072721,5.56232724 13.7228895,5.62017055 C14.2519906,5.62655781 14.7661401,5.65392395 15.2715539,5.70259932 C14.0569481,5.26107952 12.5417707,5 10.8936812,5 C9.5749743,5 8.34225303,5.16829897 7.278059,5.45825885 C2.99927552,6.61476707 0,9.29711619 0,12.4212604 C0,16.6061865 5.37246068,20 12.001498,20 C18.6272313,20 24,16.6061865 24,12.4212604 L23.999356,12.4212604" sketch:type="MSShapeGroup"></path>
        </g>
    </g>
</svg>