<?xml version="1.0" encoding="UTF-8" standalone="no"?>
<svg width="24px" height="24px" viewBox="0 0 24 24" version="1.1" xmlns="http://www.w3.org/2000/svg" xmlns:xlink="http://www.w3.org/1999/xlink" xmlns:sketch="http://www.bohemiancoding.com/sketch/ns">
    <!-- Generator: Sketch 3.3.3 (12072) - http://www.bohemiancoding.com/sketch -->
    <title>北京银行@0.5x</title>
    <desc>Created with Sketch.</desc>
    <defs></defs>
    <g id="24*24" stroke="none" stroke-width="1" fill="none" fill-rule="evenodd" sketch:type="MSPage">
        <g id="北京银行" sketch:type="MSArtboardGroup" fill="#D5292F">
            <path d="M21.6031986,14.7249038 L21.694675,14.3891767 L21.7740353,14.0540557 L21.8412795,13.7116626 L21.8958018,13.3765415 L21.9206397,13.205042 L21.938208,13.0280884 L21.9569879,12.8571948 L21.9751621,12.6869073 L21.9806143,12.5099536 L21.993942,12.333 L21.993942,12.1560464 L22,11.9790928 L21.993942,11.7221465 L21.9878839,11.4724722 L21.969104,11.2221919 L21.9515357,10.9719116 L21.9266978,10.7216314 L21.8958018,10.4774111 L21.8588478,10.2331909 L21.7619192,9.75747659 L21.7061853,9.51931643 L21.6516629,9.28782232 L21.5844187,9.05572221 L21.5111165,8.82968215 L21.4317562,8.60364209 L21.3463379,8.37820804 L21.2615254,8.15822804 L21.1633852,7.93885404 L21.0664567,7.71887404 L20.9562004,7.5049541 L20.8459441,7.29164015 L20.7302357,7.08438627 L20.6084691,6.87652638 L20.4745865,6.66866648 L20.3394923,6.46747265 L20.2001575,6.26627882 L20.053553,6.07114505 L19.9008905,5.87601127 L19.748228,5.68633155 L19.5834494,5.49119777 L19.4132186,5.3081841 L19.2417762,5.11911038 L19.0582177,4.93609672 L18.8758708,4.75914311 L18.6868601,4.58158349 L18.3082329,4.2525225 L18.1131641,4.09374905 L17.9174895,3.94103566 L17.7163628,3.79438233 L17.515236,3.65439505 L17.3141092,3.51986183 L17.1057127,3.39138866 L16.8991337,3.26958155 L16.6858908,3.14777444 L16.4720422,3.03808745 L16.2587993,2.9338545 L16.0388926,2.83022756 L15.8183801,2.73872072 L15.5936269,2.64721389 L15.3676622,2.56176711 L15.1416975,2.48844044 L14.9157327,2.41571978 L14.6837099,2.34784717 L14.452293,2.28724661 L14.2142122,2.23210011 L13.9761313,2.18361967 L13.7386563,2.14059328 L13.4951233,2.10423295 L13.2509844,2.07332667 L13.0062398,2.04302639 L12.7566487,2.02484623 L12.5070576,2.01272612 L12.2562549,2 L11.7437451,2 L11.4868844,2.01272612 L11.2312352,2.02484623 L10.9804325,2.04302639 L10.7368995,2.07332667 L10.4927606,2.10423295 L10.2492276,2.14059328 L10.0044829,2.18361967 L9.76640213,2.23210011 L9.52892712,2.28724661 L9.29690434,2.34784717 L9.06488157,2.41571978 L8.84012843,2.48844044 L8.61416369,2.56176711 L8.38819895,2.64721389 L8.16829224,2.73872072 L7.94899134,2.83022756 L7.72908463,2.9338545 L7.51584176,3.03808745 L7.30199309,3.14777444 L7.09480826,3.26958155 L6.88641183,3.39138866 L6.6798328,3.51986183 L6.478706,3.65439505 L6.27697341,3.79438233 L6.08190465,3.94103566 L5.88683589,4.09374905 L5.69176713,4.2525225 L5.49609257,4.41674999 L5.31313988,4.58158349 L5.12352335,4.75914311 L4.94117647,4.93609672 L4.75822378,5.11911038 L4.58738717,5.3081841 L4.41594475,5.49119777 L4.25177198,5.68633155 L4.09305143,5.87601127 L3.79984249,6.26627882 L3.65990186,6.46747265 L3.51935542,6.66866648 L3.39153087,6.87652638 L3.26976434,7.08438627 L3.15345005,7.29164015 L3.03774156,7.5049541 L2.93354335,7.71887404 L2.83661477,7.93885404 L2.73847459,8.15822804 L2.64699824,8.37820804 L2.56763797,8.60364209 L2.4882777,8.82968215 L2.41497546,9.05572221 L2.34773127,9.28782232 L2.28775671,9.51931643 L2.23202278,9.75747659 L2.18355849,9.99503075 L2.14054643,10.2331909 L2.10419822,10.4774111 L2.07330224,10.7216314 L2.0496759,10.9719116 L2.02483795,11.2221919 L2.01272188,11.4724722 L2.00605804,11.7221465 L2,11.9790928 L2.00605804,12.2354331 L2.01272188,12.4917735 L2.02483795,12.7420538 L2.0496759,12.991728 L2.07330224,13.2420083 L2.10419822,13.4862285 L2.14054643,13.7304487 L2.18355849,13.9686089 L2.23202278,14.2067691 L2.28775671,14.4443232 L2.34773127,14.6824834 L2.41497546,14.9145835 L2.4882777,15.1400176 L2.56763797,15.3721177 L2.64699824,15.5920977 L2.73847459,15.8175317 L2.83661477,16.0375117 L2.93354335,16.2574917 L3.03774156,16.4708057 L3.15345005,16.6847256 L3.26976434,16.8974336 L3.39153087,17.1052935 L3.51935542,17.3131533 L3.65990186,17.5198012 L3.79984249,17.7216011 L3.94644696,17.9173408 L4.09305143,18.1185347 L4.25177198,18.3076084 L4.41594475,18.5033482 L4.58738717,18.6918159 L4.75822378,18.8814956 L4.94117647,19.0645093 L5.12352335,19.2414629 L5.31313988,19.4184165 L5.49609257,19.5893101 L5.69176713,19.7480835 L5.88683589,19.906857 L6.08190465,20.0595703 L6.27697341,20.2056177 L6.478706,20.346211 L6.6798328,20.4801382 L6.88641183,20.6086113 L7.09480826,20.7304184 L7.30199309,20.8528316 L7.51584176,20.9625186 L7.72908463,21.0728116 L7.94899134,21.1697724 L8.16829224,21.2679453 L8.38819895,21.3533921 L8.61416369,21.4382329 L8.84012843,21.5176196 L9.06488157,21.5848862 L9.29690434,21.6521528 L9.52892712,21.7127534 L9.76640213,21.7678999 L10.0044829,21.8169863 L10.2492276,21.8600127 L10.4927606,21.8963731 L10.7368995,21.9333394 L10.9804325,21.9575796 L11.2312352,21.9757598 L11.4868844,21.9878799 L11.7437451,22 L12.0006058,22 L12.3604531,21.9939399 L12.7136366,21.9818198 L13.0619737,21.9515196 L13.409705,21.9145532 L13.7501666,21.8654668 L14.0803296,21.8048662 L14.4153389,21.7315396 L14.7394439,21.6521528 L15.056885,21.5545859 L15.3737202,21.450959 L15.6851033,21.335212 L15.9904283,21.2127988 L16.2884837,21.0728116 L16.5877507,20.9261582 L16.8809596,20.7673848 L17.1675047,20.6025513 L17.3625735,20.4801382 L17.55219,20.3583311 L17.7357485,20.236524 L17.9059793,20.1080508 L18.0762101,19.9862437 L18.2349306,19.8577705 L18.3875931,19.7299033 L18.5341976,19.6014302 L18.6680802,19.4668969 L18.8025686,19.3390298 L18.9243351,19.2051026 L19.0406494,19.0705693 L19.1502999,18.9305821 L19.2532865,18.7960488 L19.3459744,18.6554556 L19.436845,18.5148623 L19.5162052,18.374875 L19.5895075,18.2342817 L19.6567517,18.0942945 L19.717332,17.9476411 L19.773066,17.8009878 L19.8154722,17.6543345 L19.8578785,17.5082871 L19.8887745,17.3555737 L19.9124008,17.2089204 L19.9311807,17.056813 L19.9432968,16.7513862 L19.9372387,16.5926128 L19.9311807,16.4398994 L19.9124008,16.281732 L19.8887745,16.1229585 L19.8578785,15.9944853 L19.8275883,15.8605581 L19.7906343,15.738145 L19.7536803,15.6102779 L19.7058218,15.4878647 L19.6567517,15.3721177 L19.6016236,15.2557646 L19.5410432,15.1400176 L19.473799,15.0303306 L19.405949,14.9200376 L19.3271945,14.8109566 L19.2478343,14.7067236 L19.1624159,14.6091567 L19.0769976,14.5115899 L18.9788575,14.414023 L18.8819289,14.3158501 L18.7777307,14.2249492 L18.6680802,14.1388965 L18.5517659,14.0540557 L18.437269,13.9686089 L18.3142909,13.8886162 L18.1864663,13.8098355 L18.0525838,13.7365088 L17.9120373,13.6577281 L17.7708851,13.5898555 L17.6254922,13.5231949 L17.4728297,13.4553222 L17.3141092,13.3947217 L17.1499364,13.3335151 L16.9839462,13.2729146 L16.8137154,13.2177681 L16.6362149,13.1626216 L16.179439,13.0038481 L16.3248319,12.9190074 L16.4659841,12.8268945 L16.5998667,12.7353877 L16.7228449,12.6378208 L16.8385533,12.5341939 L16.947598,12.4305669 L17.0457382,12.3208799 L17.1366087,12.2045269 L17.222027,12.0887798 L17.2953293,11.9669727 L17.3686315,11.8384995 L17.4243654,11.7106324 L17.4788877,11.5760991 L17.521294,11.4415659 L17.55219,11.3015786 L17.583086,11.1549253 L17.5945962,10.9840318 L17.6006543,10.8258643 L17.5945962,10.6604248 L17.583086,10.4955913 L17.55219,10.3374239 L17.5097837,10.1780444 L17.4607136,10.025937 L17.3995275,9.86716359 L17.3262252,9.71505621 L17.2408069,9.56234282 L17.1426667,9.40962943 L17.0336221,9.26297609 L16.910644,9.11632276 L16.7773672,8.96966942 L16.6301569,8.82968215 L16.4774944,8.68908887 L16.3072636,8.54243554 L16.1370328,8.40244826 L15.9595323,8.2745811 L15.7759738,8.15216798 L15.5881747,8.03581493 L15.3925002,7.92673393 L15.1901617,7.82856104 L14.9829769,7.73099415 L14.7703399,7.64554737 L14.5504331,7.5601006 L14.3244684,7.48677393 L14.0924456,7.42011332 L13.8543648,7.35890677 L13.6108318,7.29770021 L13.3600291,7.24861376 L13.10438,7.20619338 L12.811171,7.16377299 L12.5185679,7.12680665 L12.2132429,7.09590037 L11.9079179,7.07166015 L11.5971406,7.04741993 L11.2796995,7.02923977 L10.9628642,7.01651365 L10.6339129,7.0110596 L10.3037499,7.00499955 L9.96752893,7.0110596 L9.6270673,7.0110596 L9.27873024,7.02257371 L8.92554674,7.04075387 L8.5656994,7.06014605 L8.20464046,7.07772021 L7.83934089,7.10862649 L7.83934089,10.2640972 L8.13133822,10.2271309 L8.42454716,10.1907705 L8.7171503,10.1665303 L9.01641728,10.1416841 L9.30962622,10.1228979 L9.60828739,10.1113838 L9.90755437,10.1047178 L10.5109348,10.1047178 L10.8102017,10.1174439 L11.1155267,10.129564 L11.4208518,10.1538042 L11.7249652,10.1780444 L12.0296844,10.2089507 L12.3410674,10.245917 L12.6524505,10.2822774 L12.9032532,10.3253038 L13.1407282,10.3737842 L13.3600291,10.4283247 L13.5684255,10.4834712 L13.7574362,10.5507378 L13.9337251,10.6180044 L14.0985037,10.6913311 L14.2451081,10.7707178 L14.3123523,10.8064721 L14.3729327,10.8501045 L14.4341189,10.898585 L14.4886412,10.9410054 L14.5443751,10.9900918 L14.5867814,11.0385723 L14.6352457,11.0876587 L14.6721997,11.1361391 L14.7085479,11.1912856 L14.7455019,11.2464321 L14.7763979,11.3015786 L14.8000242,11.3621792 L14.8188041,11.4173257 L14.8363724,11.4785323 L14.8497001,11.5391328 L14.8612104,11.6070054 L14.8612104,11.7160864 L14.8497001,11.7712329 L14.8363724,11.8324395 L14.7879082,11.9669727 L14.720664,12.1190801 L14.6782577,12.1802866 L14.6297934,12.2414932 L14.5752711,12.2960337 L14.4401769,12.3814805 L14.3668747,12.4184468 L14.2875144,12.4487471 L14.2027019,12.4729873 L14.1112255,12.4917735 L14.0070273,12.5099536 L13.9028291,12.5160137 L13.6714121,12.5160137 L13.5490398,12.5099536 L13.4212152,12.4917735 L13.2806688,12.4729873 L12.9153692,12.4305669 L12.5555219,12.3942066 L12.1956746,12.3633003 L11.8406737,12.3390601 L11.494154,12.3208799 L11.1464227,12.3081538 L10.7980857,12.3020937 L10.4564124,12.2960337 L10.1201914,12.3020937 L9.78578785,12.3081538 L9.44956685,12.3208799 L9.1206155,12.3390601 L8.79772218,12.3633003 L8.47301145,12.3942066 L8.15617617,12.4305669 L7.83934089,12.4729873 L7.83934089,15.6896646 L8.28400073,15.6405781 L8.7171503,15.5920977 L9.14424184,15.5551314 L9.57133337,15.5248311 L9.98085661,15.5060449 L10.3891682,15.4878647 L10.7853638,15.4818047 L11.1755013,15.4818047 L11.5601866,15.4945308 L11.9388138,15.5060449 L12.3047192,15.5308911 L12.6651724,15.5672515 L13.0189617,15.6036118 L13.3672987,15.6533042 L13.7017023,15.7072387 L14.0318653,15.7690513 L14.2935724,15.8175317 L14.5383171,15.8787383 L14.7703399,15.9393388 L14.9829769,16.0066055 L15.1847095,16.0859922 L15.3676622,16.1653789 L15.4530805,16.2077993 L15.5324408,16.2508257 L15.6118011,16.2938521 L15.6851033,16.3423325 L15.7523475,16.391419 L15.8183801,16.4398994 L15.880172,16.4950459 L15.9346944,16.5441324 L15.9904283,16.5986728 L16.0388926,16.6538193 L16.0812988,16.7089659 L16.1237051,16.7695664 L16.1606591,16.830773 L16.2224511,16.9525801 L16.2400194,17.0198467 L16.2648573,17.0810532 L16.2763676,17.1477138 L16.2884837,17.2155865 L16.3012055,17.2889131 L16.3012055,17.3434536 L16.3072636,17.4040542 L16.3012055,17.4658667 L16.3012055,17.5198012 L16.2884837,17.5810078 L16.2763676,17.6361543 L16.2587993,17.6973608 L16.2400194,17.7519013 L16.216393,17.8137139 L16.1854971,17.8682544 L16.1546011,17.928855 L16.1182529,17.9906675 L16.0388926,18.1124746 L15.941964,18.2342817 L15.880172,18.3076084 L15.8068698,18.374875 L15.7335676,18.4421416 L15.6542073,18.5033482 L15.574847,18.5639487 L15.4900345,18.6251553 L15.4046162,18.6803018 L15.3125341,18.7348423 L15.2210577,18.7893828 L15.1241292,18.8384692 L15.0199309,18.8875557 L14.9157327,18.9360361 L14.8060823,18.9790625 L14.6909796,19.0214829 L14.5752711,19.0584492 L14.452293,19.0948096 L14.3299206,19.1317759 L14.2027019,19.1626822 L14.0742715,19.1923765 L13.9337251,19.2166167 L13.653238,19.2657031 L13.3600291,19.3087295 L13.048646,19.3390298 L12.7196947,19.363876 L12.3780214,19.3759961 L11.8291634,19.3759961 L11.6395469,19.3693301 L11.4505361,19.357816 L11.2621312,19.3450898 L11.0785727,19.3269097 L10.89562,19.3026695 L10.7193312,19.2778232 L10.5357727,19.247523 L10.3594839,19.2111626 L10.1819834,19.1681362 L10.0117526,19.1257158 L9.83970437,19.0766294 L9.66947356,19.028149 L9.49924275,18.9663364 L9.33325256,18.9057358 L9.16907978,18.8445293 L9.00430121,18.7718086 L8.84012843,18.698482 L8.68140789,18.6251553 L8.52208154,18.5397085 L8.37002484,18.4542617 L8.21796813,18.3627549 L8.06530563,18.2712481 L7.91264312,18.1736812 L7.76603865,18.0700542 L7.61882838,17.9597612 L7.47343551,17.8494682 L7.32683104,17.7337212 L7.1856788,17.6119141 L7.04634398,17.490107 L6.91124977,17.3616338 L6.77191495,17.2271006 L6.64287878,17.0931733 L6.51505422,16.9525801 L6.38722966,16.8125928 L6.26546314,16.6719995 L6.14975465,16.5320122 L6.03949839,16.3853589 L5.92924214,16.2387056 L5.82504392,16.0920522 L5.72811535,15.9393388 L5.62997516,15.7932915 L5.53910462,15.6345181 L5.45368631,15.4818047 L5.29496577,15.1648638 L5.22166354,15.0060904 L5.1483613,14.8412569 L5.0811171,14.6824834 L5.02053674,14.5115899 L4.96480281,14.3467564 L4.91088629,14.1758628 L4.862422,14.0049692 L4.81819834,13.8340757 L4.77579209,13.6577281 L4.74004968,13.4801685 L4.7097595,13.3032149 L4.67886351,13.1202012 L4.6600836,12.9371875 L4.63645726,12.7535679 L4.62312958,12.5711602 L4.61101351,12.3814805 L4.60556128,12.1924068 L4.60556128,11.8136533 L4.61101351,11.6245796 L4.62312958,11.4355059 L4.63645726,11.2524922 L4.6600836,11.0694785 L4.67886351,10.8864649 L4.7097595,10.7095113 L4.74004968,10.5258916 L4.77579209,10.354998 L4.81819834,10.1780444 L4.862422,10.0077569 L4.91088629,9.83019725 L4.96480281,9.66596976 L5.02053674,9.4944702 L5.0811171,9.33024271 L5.1483613,9.1648032 L5.22166354,9.00057571 L5.29496577,8.84180226 L5.37432604,8.68302882 L5.45368631,8.52486138 L5.53910462,8.36548193 L5.62997516,8.21337454 L5.72811535,8.06066115 L5.82504392,7.91400782 L5.92924214,7.76129443 L6.03949839,7.6152471 L6.14975465,7.46859376 L6.26546314,7.32800048 L6.38722966,7.18801321 L6.64287878,6.90743266 L6.77191495,6.77289943 L6.91124977,6.63836621 L7.05240201,6.51049905 L7.19173684,6.38808593 L7.33288908,6.26627882 L7.47949355,6.15053177 L7.62488641,6.04023877 L7.77149088,5.93115777 L7.91809535,5.82692483 L8.22342037,5.63118504 L8.37608287,5.54028422 L8.53480342,5.45423143 L8.69352396,5.36939066 L8.8516387,5.29000394 L9.01035924,5.21667727 L9.17513782,5.14941066 L9.3393106,5.08214405 L9.50530078,5.02093749 L9.67553159,4.96033694 L9.83970437,4.91125049 L10.0172048,4.86277005 L10.1874356,4.81428961 L10.3655419,4.77671727 L10.5418307,4.74096294 L10.7193312,4.71005666 L10.89562,4.67975639 L11.0785727,4.65491016 L11.2681893,4.63672999 L11.4505361,4.62460988 L11.6395469,4.61248977 L11.8291634,4.60642972 L12.0181741,4.60036966 L12.2071848,4.60642972 L12.3968014,4.61248977 L12.5864179,4.62460988 L12.768159,4.63672999 L12.9517175,4.65491016 L13.1352759,4.67975639 L13.3115648,4.71005666 L13.4890652,4.74096294 L13.6653541,4.77671727 L13.8428545,4.81428961 L14.0130854,4.86277005 L14.1845278,4.91125049 L14.3547586,4.96033694 L14.5195372,5.02093749 L14.6909796,5.08214405 L14.8497001,5.14941066 L15.0138729,5.21667727 L15.1725934,5.29000394 L15.331314,5.36939066 L15.4900345,5.45423143 L15.6420912,5.54028422 L15.8008118,5.63118504 L15.9474162,5.72875193 L16.1000788,5.82692483 L16.2460774,5.93115777 L16.3926819,6.04023877 L16.5332283,6.15053177 L16.6786212,6.26627882 L16.8197734,6.38808593 L16.9542618,6.51049905 L17.0942025,6.63836621 L17.2292967,6.77289943 L17.3565154,6.90743266 L17.48434,7.04075387 L17.6121645,7.18195316 L17.7357485,7.32194043 L17.851457,7.46253371 L17.9605016,7.60918704 L18.0701521,7.75523437 L18.1743503,7.90188771 L18.2712789,8.0546011 L18.3639668,8.20670848 L18.4548373,8.35942187 L18.5457079,8.51819532 L18.6250682,8.67090871 L18.7044284,8.83634821 L18.7777307,8.99451565 L18.8510329,9.15934915 L18.9188829,9.32418265 L18.9788575,9.48901615 L19.0345914,9.65990971 L19.0891137,9.83019725 L19.137578,10.0010908 L19.1811959,10.1719844 L19.2236021,10.349544 L19.2605561,10.5258916 L19.2902405,10.7034512 L19.3150785,10.8864649 L19.3399164,11.0694785 L19.3574847,11.2524922 L19.3768704,11.4355059 L19.3883807,11.6245796 L19.3944387,11.8136533 L19.3944387,12.003333 L19.3574847,12.8087144 L19.5162052,12.9062812 L19.6749258,12.9983941 L19.8330405,13.101415 L19.985703,13.205042 L20.1323075,13.315335 L20.2795178,13.425628 L20.4261223,13.534709 L20.5654571,13.6577281 L20.7066093,13.7795352 L20.8459441,13.9013423 L20.9749803,14.0298155 L21.1088629,14.1576826 L21.2366875,14.2976699 L21.358454,14.4322031 L21.4814321,14.5788565 L21.6031986,14.7249038" sketch:type="MSShapeGroup"></path>
        </g>
    </g>
</svg>