<?xml version="1.0" encoding="UTF-8" standalone="no"?>
<svg width="24px" height="24px" viewBox="0 0 24 24" version="1.1" xmlns="http://www.w3.org/2000/svg" xmlns:xlink="http://www.w3.org/1999/xlink" xmlns:sketch="http://www.bohemiancoding.com/sketch/ns">
    <!-- Generator: Sketch 3.3.3 (12072) - http://www.bohemiancoding.com/sketch -->
    <title>华夏银行@0.5x</title>
    <desc>Created with Sketch.</desc>
    <defs></defs>
    <g id="24*24" stroke="none" stroke-width="1" fill="none" fill-rule="evenodd" sketch:type="MSPage">
        <g id="华夏银行" sketch:type="MSArtboardGroup">
            <g sketch:type="MSLayerGroup" transform="translate(1.000000, 2.000000)">
                <path d="M20.8165294,4.55109375 L20.0711176,3.58246875 C20.0711176,3.58246875 17.1464118,4.06678125 17.2059412,2.40253125 C17.2059412,2.40253125 17.4142941,1.1615625 15.2964706,1.645875 C15.2964706,1.645875 14.7878824,1.1615625 14.8182941,0.88921875 C14.8182941,0.88921875 14.9677647,0.16275 12.6700588,0.5565 C12.6700588,0.5565 9.26782353,0.97978125 5.53752941,5.30775 C5.53752941,5.30775 1.77747059,8.4249375 1.77747059,5.2171875 C1.77747059,5.2171875 -0.282764706,7.3355625 0.821764706,9.03065625 C0.821764706,9.03065625 2.07576471,10.8156563 4.46276471,9.363375 C4.46276471,9.363375 3.71735294,15.2348438 7.53629412,18.2916563 C7.53629412,18.2916563 11.5351176,22.04475 16.1318235,20.7132188 C16.1318235,20.7132188 19.9811765,19.8955313 21.4435294,15.9613125 C21.4435294,15.9613125 20.757,16.6575938 20.4587059,16.5965625 C20.4587059,16.5965625 21.5024118,15.3254063 21.5619412,14.7807188 C21.5619412,14.7807188 21.5328235,14.0240625 20.9362353,15.2046563 C20.9362353,15.2046563 21.0857059,14.4781875 20.6670588,14.84175 C20.6670588,14.84175 18.6378824,17.2324688 17.7734118,17.3532188 C17.7734118,17.3532188 11.3571765,21.1975313 8.43117647,13.4491875 C8.43117647,13.4491875 7.17911765,9.7873125 10.1322941,7.03303125 C13.0874118,4.27875 15.9823529,4.55109375 18.6378824,6.54871875 C18.6378824,6.54871875 19.9811765,5.00521875 20.5486471,5.30775 C20.5486471,5.30775 21.0552941,5.00521875 20.8165294,4.55109375" id="Fill-2" fill="#D9222A" sketch:type="MSShapeGroup"></path>
                <path d="M11.8638235,9.2124375 L18.2205294,9.18159375 L18.2205294,14.0844375 L11.8638235,14.0844375 L11.8638235,9.2124375" id="Fill-3" fill="#CBCCCB" sketch:type="MSShapeGroup"></path>
            </g>
        </g>
    </g>
</svg>