<?xml version="1.0" encoding="UTF-8" standalone="no"?>
<svg width="24px" height="24px" viewBox="0 0 24 24" version="1.1" xmlns="http://www.w3.org/2000/svg" xmlns:xlink="http://www.w3.org/1999/xlink" xmlns:sketch="http://www.bohemiancoding.com/sketch/ns">
    <!-- Generator: Sketch 3.3.3 (12072) - http://www.bohemiancoding.com/sketch -->
    <title>吉林银行@0.5x</title>
    <desc>Created with Sketch.</desc>
    <defs></defs>
    <g id="24*24" stroke="none" stroke-width="1" fill="none" fill-rule="evenodd" sketch:type="MSPage">
        <g id="吉林银行" sketch:type="MSArtboardGroup" fill="#CC232B">
            <path d="M21.5677516,9.66003037 C22.1686806,11.5934232 22.1298646,14.0204483 21.5332485,15.9362114 C20.4377751,19.4548101 17.720656,22.0287495 13.9770696,22.811803 C11.9241352,23.2407929 9.68574661,22.9072973 7.93902718,22.1066141 C4.4642775,20.5125934 1.63214806,17.0336616 2.03899712,11.5287809 C2.79806531,13.137493 3.92516657,14.437685 5.52381019,15.266282 C7.1167033,16.0919406 9.53479555,16.3181887 11.4238403,15.5483575 C13.0196086,14.897527 14.3465403,13.7031133 15.1846781,12.092932 C15.9336829,10.6546405 16.4756691,8.12036797 15.6332184,6.09882651 C15.8776154,8.25699832 14.9819724,10.0082174 13.9080634,11.1056676 C12.9606658,12.0738331 11.5546645,12.7863677 9.83669767,12.7628614 C6.71560477,12.7202563 4.15662486,10.2241815 4.1436862,6.90979373 C4.13649806,5.18061183 4.78055592,3.92302499 5.66182259,2.92547655 C6.66097486,1.7957052 8.20498857,0.843700205 10.4577535,1.02146657 C11.6596114,1.11549175 12.5581297,1.57092624 13.3215107,2.14976878 C13.5443433,2.31872028 13.7801144,2.63752442 14.0460758,2.74917933 C14.4788022,2.92988398 15.0322894,2.97542743 15.4607029,3.13703321 C18.3747772,4.2374217 20.5671617,6.44701353 21.5677516,9.66003037" sketch:type="MSShapeGroup"></path>
        </g>
    </g>
</svg>