<?xml version="1.0" encoding="UTF-8" standalone="no"?>
<svg width="24px" height="24px" viewBox="0 0 24 24" version="1.1" xmlns="http://www.w3.org/2000/svg" xmlns:xlink="http://www.w3.org/1999/xlink" xmlns:sketch="http://www.bohemiancoding.com/sketch/ns">
    <!-- Generator: Sketch 3.3.3 (12072) - http://www.bohemiancoding.com/sketch -->
    <title>大连银行@0.5x</title>
    <desc>Created with Sketch.</desc>
    <defs></defs>
    <g id="24*24" stroke="none" stroke-width="1" fill="none" fill-rule="evenodd" sketch:type="MSPage">
        <g id="大连银行" sketch:type="MSArtboardGroup">
            <g sketch:type="MSLayerGroup" transform="translate(2.000000, 2.000000)">
                <path d="M0.126122449,9.86204082 C0.126122449,4.43020408 4.52897959,0.027755102 9.96040816,0.027755102 C15.3922449,0.027755102 19.795102,4.43020408 19.795102,9.86204082 C19.795102,15.2934694 15.3922449,19.6963265 9.96040816,19.6963265 C4.52897959,19.6963265 0.126122449,15.2934694 0.126122449,9.86204082" id="Fill-23" fill="#B13232" sketch:type="MSShapeGroup"></path>
                <path d="M11.3681633,4.68693878 C11.4163265,4.94122449 11.6987755,5.06897959 11.8844898,5.20326531 C12.7730612,5.39959184 13.7236735,5.54081633 14.6734694,5.47918367 C14.8253061,5.53387755 15.0142857,5.5755102 15.0869388,5.75387755 C15.0489796,6.35020408 14.9665306,6.95959184 14.3979592,7.30367347 C14.0293878,7.48285714 13.2208163,7.03836735 13.2273469,7.68244898 C13.5163265,8.40530612 14.395102,7.9922449 14.9146939,8.30204082 C15.1485714,8.45714286 14.8906122,8.76653061 15.0179592,8.99102041 C15.0216327,9.15959184 14.9322449,9.31836735 14.8110204,9.40408163 C14.6734694,9.46285714 14.5085714,9.46285714 14.3636735,9.50734694 C14.1779592,9.7555102 13.6616327,9.7555102 13.8130612,10.1616327 C13.8404082,10.3579592 14.0571429,10.5334694 14.2257143,10.6093878 C14.4632653,10.6955102 14.7836735,10.5783673 14.9836735,10.6783673 C15.0420408,11.1493878 15.0453061,11.6832653 14.8457143,12.0897959 C14.56,12.2861224 14.3706122,12.6542857 13.9506122,12.6061224 C13.784898,12.7061224 13.564898,12.8163265 13.5028571,13.0195918 C13.5028571,13.3877551 13.9363265,13.2877551 14.1232653,13.5012245 C14.395102,13.5391837 14.6183673,13.3502041 14.8804082,13.4669388 C15.2759184,13.842449 15.0008163,14.4518367 14.9836735,14.9134694 L14.6734694,15.2918367 C14.395102,15.4053061 14.102449,15.4812245 13.8130612,15.5673469 L13.8130612,15.6363265 L13.3991837,15.6363265 C13.4134694,15.44 13.1930612,15.5228571 13.0897959,15.4640816 C12.8379592,15.584898 12.6314286,15.3955102 12.4012245,15.3604082 C11.2061224,15.5326531 10.3938776,14.775102 9.19877551,14.9473469 C8.76530612,14.6208163 8.12122449,14.7065306 7.58040816,14.7412245 C7.04693878,15.1195918 6.39265306,15.2057143 5.75591837,15.3265306 C5.39795918,15.3881633 5.31183673,14.9440816 5.06693878,14.8097959 C5.04979592,14.4485714 4.59877551,14.2208163 4.79102041,13.8110204 C5.0844898,13.4669388 5.05346939,12.9885714 5.34285714,12.6404082 C5.32530612,12.262449 5.41142857,11.8420408 5.13591837,11.5730612 C5.21510204,11.0669388 5.24612245,10.54 5.37714286,10.0579592 C5.53877551,9.88244898 5.72816327,9.5244898 6.03142857,9.71387755 C6.37183673,10.2542857 7.41877551,9.60367347 7.44244898,10.402449 C7.45346939,11.0257143 7.37714286,11.7008163 6.78897959,11.9865306 C6.47877551,12.4963265 5.68,11.8040816 5.58367347,12.5371429 C5.48367347,12.857551 5.86244898,13.0122449 6.03142857,13.1914286 C6.37918367,13.0677551 6.75795918,13.0163265 7.02979592,12.7097959 C7.42938776,12.6922449 7.57020408,12.2657143 7.95918367,12.2273469 C8.26204082,12.3510204 8.63061224,12.3893878 8.82,12.7097959 C8.99959184,12.7506122 9.03714286,12.9093878 9.19877551,12.984898 C9.63306122,13.3326531 10.1832653,12.7640816 10.5420408,13.2946939 C10.7485714,13.3465306 11.0236735,13.3465306 11.2302041,13.2946939 C11.4093878,13.1885714 11.5608163,13.0089796 11.5057143,12.7779592 C11.5371429,12.6440816 11.4681633,12.5514286 11.3681633,12.4681633 C11.2302041,12.3755102 11.0930612,12.4926531 10.955102,12.5028571 C10.4146939,12.5440816 10.0220408,12.2236735 9.50897959,12.1930612 C9.1477551,11.9587755 8.71387755,11.7346939 8.6477551,11.2636735 C8.47591837,11.1216327 8.56204082,10.8746939 8.44163265,10.7126531 C8.41020408,10.5057143 8.61061224,10.3685714 8.75142857,10.264898 C9.17795918,10.1412245 9.49510204,10.4991837 9.85346939,10.3334694 C10.0836735,10.1685714 10.4518367,10.2714286 10.5759184,9.92040816 C10.7069388,9.7244898 10.6346939,9.44204082 10.5073469,9.26653061 C10.3938776,9.19755102 10.2767347,9.19755102 10.1628571,9.26653061 C9.9155102,9.53142857 9.49836735,9.48326531 9.1644898,9.43877551 C8.98897959,9.35918367 8.7755102,9.29755102 8.68244898,9.09428571 C8.73387755,8.77428571 8.68244898,8.4122449 8.9922449,8.19877551 C9.02326531,7.9644898 8.81346939,7.80285714 8.6477551,7.68244898 C8.20693878,7.84408163 7.92897959,6.91795918 7.58040816,7.54489796 C7.55346939,7.9922449 7.78,8.37142857 7.64938776,8.81877551 C7.24653061,9.06653061 6.79918367,8.79428571 6.37510204,8.78408163 C5.93469388,8.57755102 5.40816327,8.28163265 5.20489796,7.78612245 C5.29755102,7.41755102 5.02571429,7.07306122 5.17020408,6.68408163 C4.96367347,6.20857143 5.38734694,5.90204082 5.41142857,5.47918367 C5.64571429,5.2722449 5.89673469,5.01428571 6.23795918,5.16857143 C6.44081633,5.35795918 6.72653061,5.33755102 6.8922449,5.61673469 C7.23591837,5.68571429 7.55959184,5.90897959 7.92489796,5.82285714 C8.21428571,5.70979592 8.31387755,5.34816327 8.6477551,5.34122449 C9.15428571,5.34122449 9.82938776,5.5477551 10.1628571,5.03142857 C10.3387755,4.95183673 10.5730612,4.86979592 10.644898,4.68693878 L11.3681633,4.68693878" id="Fill-24" fill="#FFFFFF" sketch:type="MSShapeGroup"></path>
            </g>
        </g>
    </g>
</svg>