<?xml version="1.0" encoding="UTF-8" standalone="no"?>
<svg width="24px" height="24px" viewBox="0 0 24 24" version="1.1" xmlns="http://www.w3.org/2000/svg" xmlns:xlink="http://www.w3.org/1999/xlink" xmlns:sketch="http://www.bohemiancoding.com/sketch/ns">
    <!-- Generator: Sketch 3.3.3 (12072) - http://www.bohemiancoding.com/sketch -->
    <title>广州市商业银行@0.5x</title>
    <desc>Created with Sketch.</desc>
    <defs></defs>
    <g id="24*24" stroke="none" stroke-width="1" fill="none" fill-rule="evenodd" sketch:type="MSPage">
        <g id="广州市商业银行" sketch:type="MSArtboardGroup" fill="#005093">
            <path d="M2.11260997,11.4843339 C2.11260997,11.4843339 2.78240469,1.72721537 12.9501466,2.00585639 C12.9501466,2.00585639 21.2739003,2.50869805 22,11.5411158 L17.1953079,11.539945 C17.1953079,11.539945 14.3466276,11.6511673 12.0005865,7.13554379 C12.0005865,7.13554379 9.37536657,11.1547648 6.52492669,11.4890169 L2.11260997,11.4843339 L2.11260997,11.4843339 Z M2,12.0972271 L6.91671554,12.2084493 C6.91671554,12.2084493 7.69912023,12.2084493 8.36950147,12.8219278 L2.11260997,12.8254401 L2,12.0972271 L2,12.0972271 Z M2.22463343,13.3792099 L9.37536657,13.3792099 C9.37536657,13.3792099 9.9888563,13.6028251 10.2123167,14.1601072 L2.39178886,14.2157183 L2.22463343,13.3792099 L2.22463343,13.3792099 Z M2.61524927,14.8268553 L10.8826979,14.8291968 C10.8826979,14.8291968 12.0557185,15.9443463 11.7771261,18.676316 C11.7771261,18.676316 12.3348974,19.1217904 12.4475073,18.6201195 C12.4475073,18.6201195 12.0557185,14.8291968 13.2844575,14.8291968 L21.5554252,14.7735857 L21.0504399,15.8910767 L18.201173,15.8881498 C18.201173,15.8881498 17.1953079,15.6651199 17.2516129,17.3381367 C17.2516129,17.3381367 17.2938416,22.4859709 12.1665689,21.9626409 C12.1665689,21.9626409 6.80469208,22.2442089 6.86041056,17.6161924 C6.86041056,17.6161924 7.08387097,15.6095087 5.68739003,16.0555685 L3.00703812,16.0555685 L2.61524927,14.8268553 L2.61524927,14.8268553 Z M13.7876833,14.1601072 C13.7876833,14.1601072 14.0111437,13.2679876 15.2398827,13.4910175 L21.7765396,13.4354064 L21.6645161,14.1039107 L13.7876833,14.1601072 L13.7876833,14.1601072 Z M15.5196481,12.877539 C15.5196481,12.877539 15.855132,12.1528382 16.4134897,12.1528382 L21.888563,12.2646458 L21.7765396,12.9331501 L15.5196481,12.877539 L15.5196481,12.877539 Z" sketch:type="MSShapeGroup"></path>
        </g>
    </g>
</svg>