<?xml version="1.0" encoding="UTF-8" standalone="no"?>
<svg width="24px" height="24px" viewBox="0 0 24 24" version="1.1" xmlns="http://www.w3.org/2000/svg" xmlns:xlink="http://www.w3.org/1999/xlink" xmlns:sketch="http://www.bohemiancoding.com/sketch/ns">
    <!-- Generator: Sketch 3.3.3 (12072) - http://www.bohemiancoding.com/sketch -->
    <title>广发银行@0.5x</title>
    <desc>Created with Sketch.</desc>
    <defs></defs>
    <g id="24*24" stroke="none" stroke-width="1" fill="none" fill-rule="evenodd" sketch:type="MSPage">
        <g id="广发银行" sketch:type="MSArtboardGroup">
            <g sketch:type="MSLayerGroup" transform="translate(0.000000, 2.000000)">
                <path d="M11.8994741,8.35918644 C10.9518423,10.2857288 9.87182768,12.1754915 8.69524731,13.9697458 L8.69501321,13.9697458 C5.66249787,14.1550678 2.699861,14.6165932 0.00702296281,15.3615593 L0.00655476529,15.3615593 C3.85584068,11.1005763 7.04052022,5.54471186 8.72088112,0.0323898305 L8.72638244,0.0323898305 C9.45700467,2.76630508 10.5461492,5.60083051 11.8994741,8.35918644" id="Fill-1" fill="#A61D2A" sketch:type="MSShapeGroup"></path>
                <path d="M8.69489616,13.9702203 C10.8192254,13.8404237 12.9776159,13.846 15.1024133,13.9845763 C16.7947133,16.5685254 18.6898598,18.9474576 20.6924576,20.9388983 C15.1159911,19.6677458 8.74721723,19.6368983 3.16981427,20.9149322 L3.16489819,20.9061525 L3.25725015,20.8118305 L3.34948506,20.7170339 L3.44160293,20.6217627 L3.53336964,20.5261356 L3.6252534,20.429678 L3.71678602,20.3329831 L3.80820159,20.2356949 L3.89938305,20.1379322 L3.99079862,20.0395763 L3.99079862,20.0394576 L4.08174599,19.9407458 L4.08174599,19.9406271 L4.17257631,19.841322 L4.17257631,19.8412034 L4.26305548,19.7415424 L4.3536517,19.6412881 L4.35376875,19.6411695 L4.44389677,19.5405593 L4.44401382,19.5404407 L4.53402479,19.4392373 L4.53414184,19.4391186 L4.62380167,19.337678 L4.62391872,19.3375593 L4.71381264,19.2352881 L4.71392969,19.2351695 L4.80347246,19.132661 L4.80358951,19.1325424 L4.89289819,19.0294407 L4.89313229,19.029322 L4.98208982,18.9259831 L4.98232392,18.9257458 L5.0713985,18.8216949 L5.0716326,18.8215763 L5.16012193,18.7172881 L5.16035603,18.7171695 L5.24884536,18.6121695 L5.24907946,18.6121695 L5.33733469,18.5069322 L5.33756879,18.5068136 C6.51684129,17.0985085 7.64414387,15.5722712 8.69489616,13.9702203" id="Fill-2" fill="#580B17" sketch:type="MSShapeGroup"></path>
                <path d="M15.1027645,13.9845763 C13.9264182,12.1881864 12.8476911,10.2927288 11.899357,8.35966102 C13.255023,5.60237288 14.3386661,2.76938983 15.0442398,0.0325084746 L15.0450591,0.0325084746 C16.775166,5.56630508 19.9557488,11.1610847 23.8517375,15.3919322 L23.8477578,15.3988136 C21.1381817,14.6577627 18.1558805,14.1840169 15.1027645,13.9845763" id="Fill-3" fill="#D82332" sketch:type="MSShapeGroup"></path>
                <path d="M15.1024133,13.9845763 C18.1556464,14.1840169 21.1381817,14.6577627 23.8477578,15.3988136 L20.6924576,20.9388983 C18.6898598,18.9474576 16.7947133,16.5685254 15.1024133,13.9845763" id="Fill-4" fill="#A61D2A" sketch:type="MSShapeGroup"></path>
                <path d="M8.69524731,13.9697458 C7.01406706,16.5335254 5.13530746,18.9028475 3.16489819,20.9061525 L0.00702296281,15.3615593 C2.699861,14.6165932 5.66273197,14.1550678 8.69524731,13.9697458" id="Fill-5" fill="#D82332" sketch:type="MSShapeGroup"></path>
                <path d="M15.0442398,0.0323898305 C14.3386661,2.76938983 13.25514,5.60201695 11.8994741,8.35918644 C10.5461492,5.60083051 9.45700467,2.76630508 8.72638244,0.0323898305 L15.0442398,0.0323898305" id="Fill-6" fill="#580B17" sketch:type="MSShapeGroup"></path>
            </g>
        </g>
    </g>
</svg>