<?xml version="1.0" encoding="UTF-8" standalone="no"?>
<svg width="24px" height="24px" viewBox="0 0 24 24" version="1.1" xmlns="http://www.w3.org/2000/svg" xmlns:xlink="http://www.w3.org/1999/xlink" xmlns:sketch="http://www.bohemiancoding.com/sketch/ns">
    <!-- Generator: Sketch 3.3.3 (12072) - http://www.bohemiancoding.com/sketch -->
    <title>广州发展银行@0.5x</title>
    <desc>Created with Sketch.</desc>
    <defs></defs>
    <g id="24*24" stroke="none" stroke-width="1" fill="none" fill-rule="evenodd" sketch:type="MSPage">
        <g id="广州发展银行" sketch:type="MSArtboardGroup" fill="#1D4C89">
            <path d="M19.6242034,10.6510174 L19.7098609,11.3358698 L19.7544028,11.678296 L19.7544028,12.4066311 L19.7098609,12.7918606 L19.6673748,13.1770901 L19.5817173,13.5629989 L19.4946892,13.9054251 L19.4076612,14.2906546 L19.2788323,14.6337602 L19.0191188,15.3186126 L18.8464332,15.6617182 L18.4572055,16.3037674 L18.28452,16.6033903 L18.0693483,16.9036926 L17.8096348,17.1605123 L17.5512917,17.4601352 L17.0318646,17.9309712 L16.7735216,18.1877909 L16.4713219,18.4024867 L16.1684369,18.616503 L15.8662372,18.7877161 L15.1754951,19.1301423 L14.8732954,19.3013554 L14.5265538,19.4297653 L14.1380114,19.5153718 L13.7926403,19.6009784 L13.4034126,19.6865849 L13.0580415,19.7721915 L12.6701843,19.8156742 L12.2809566,19.8156742 L12.2809566,14.4190644 L16.0814089,14.4190644 L16.0814089,11.8073853 L12.1075858,11.8073853 L12.1075858,11.4214764 L12.1507572,11.0362469 L12.2809566,10.6510174 L12.4104708,10.3085912 L12.5399849,9.96548561 L12.7558418,9.66586269 L12.8428699,9.49397017 L12.972384,9.36623977 L13.2307271,9.06661684 L13.4904406,8.80911778 L13.7926403,8.5951014 L14.1380114,8.4238883 L14.4833824,8.25199579 L14.8287535,8.12426538 L15.1754951,8.03797941 L15.5633523,7.99517614 L15.9957514,7.95305228 L16.2986363,7.95305228 L16.5569794,7.99517614 L16.8591791,8.08078269 L17.1613787,8.12426538 L17.4210923,8.25199579 L17.6808059,8.33760234 L17.9391489,8.50881544 L18.1563763,8.63790468 L18.4147194,8.80911778 L18.6312616,9.02313415 L18.8039471,9.19502667 L19.0191188,9.40836362 L19.1918043,9.66586269 L19.3220037,9.87987906 L19.4515179,10.1373781 L19.5817173,10.4363216 L19.6242034,10.6510174 L19.6242034,10.6510174 Z M16.2116083,5.42562082 L15.7360378,5.12599789 L15.2611526,4.91198152 L14.743096,4.69796515 L14.2250394,4.48326935 L13.7062975,4.35553895 L13.1450696,4.2699324 L12.5831563,4.18364643 L11.5902145,4.18364643 L11.201672,4.22644971 L10.8124443,4.2699324 L10.4239019,4.31205626 L9.68930309,4.52675205 L9.34393202,4.65448245 L8.99856095,4.7835717 L8.65250463,4.95478479 L8.30713356,5.12599789 L7.96176249,5.29789041 L7.65887754,5.51122737 L7.35667786,5.72524374 L7.05379291,5.98206339 L6.79613513,6.19675918 L6.49325019,6.45357883 L6.27670801,6.75320175 L6.01836497,7.0100214 L5.80113753,7.31032374 L5.58596587,7.60994667 L5.37010896,7.95305228 L5.19810868,8.25199579 L5.02405263,8.5951014 L4.85136709,8.9375276 L4.7225382,9.32275707 L4.59302405,9.66586269 L4.50599603,10.0510922 L4.42033852,10.4363216 L4.33331049,10.8215511 L4.24765298,11.5926895 L4.24765298,12.0207222 L4.33331049,13.3061793 L4.42033852,13.6058022 L4.46282464,13.9054251 L4.63551018,14.504671 L4.85136709,15.1045963 L4.98088124,15.3614159 L5.11108066,15.6617182 L5.41328034,16.1746781 L5.75865141,16.6889968 L6.14787912,17.1605123 L6.5789077,17.588545 L7.01130679,18.0165778 L7.48619201,18.4024867 L8.00424861,18.7021096 L8.52367573,19.0024119 L9.08421846,19.2585522 L9.68930309,19.473248 L9.60227506,11.7217787 L9.64681697,11.0783708 L9.73247447,10.4791249 L9.86198862,9.87987906 L10.0778455,9.2799538 L10.2073597,9.02313415 L10.3375591,8.72351123 L10.6829302,8.20987193 L10.8549304,7.99517614 L11.027616,7.73835649 L11.417529,7.31032374 L11.849928,6.88229099 L12.3672994,6.53918538 L12.5831563,6.36797228 L12.8428699,6.19675918 L13.4034126,5.93993953 L13.9653258,5.72524374 L14.2682108,5.64031661 L14.5704105,5.59683392 L15.1754951,5.46910351 L15.8230659,5.46910351 L16.2116083,5.42562082 L16.2116083,5.42562082 Z M2,12.0207222 L2,11.5070829 L2.0445419,10.9927642 L2.13019941,10.4791249 L2.21722744,10.0082889 L2.30288494,9.49397017 L2.47557048,9.02313415 L2.60508463,8.55229813 L2.77777016,8.12426538 L2.9949976,7.65274994 L3.21016926,7.22471719 L3.46988282,6.79668444 L3.72822586,6.41077555 L3.98793942,6.02554608 L4.29013911,5.64031661 L4.59302405,5.29789041 L4.93839512,4.91198152 L5.28376619,4.6123586 L5.628452,4.2699324 L6.01836497,3.97030947 L6.40622216,3.71281041 L6.79613513,3.45599076 L7.22647845,3.19917111 L8.09127664,2.77045895 L8.56684712,2.59924585 L9.04173234,2.47083602 L9.51661756,2.29962292 L9.99218804,2.21333696 L10.4670733,2.12773041 L10.9851299,2.04280327 L11.4600151,2 L12.4974988,2 L13.0155554,2.04280327 L13.533612,2.12773041 L14.0084972,2.21333696 L14.4833824,2.29962292 L14.9589529,2.47083602 L15.4338381,2.59924585 L15.8662372,2.77045895 L16.3411225,2.98447532 L16.7735216,3.19917111 L17.1613787,3.45599076 L17.5937778,3.71281041 L17.9823203,3.97030947 L18.3290619,4.2699324 L18.7169191,4.6123586 L19.0622901,4.91198152 L19.4076612,5.29789041 L19.7098609,5.64031661 L20.0127458,6.02554608 L20.5314877,6.79668444 L20.790516,7.22471719 L21.0070582,7.65274994 L21.1797437,8.12426538 L21.3949154,8.55229813 L21.6546289,9.49397017 L21.7848283,10.0082889 L21.8704858,10.4791249 L21.912972,10.9927642 L21.9575139,11.5070829 L22,12.0207222 L21.9575139,12.5350409 L21.912972,13.005877 L21.8704858,13.5201957 L21.7848283,14.033835 L21.3949154,15.4470225 L21.1797437,15.8757346 L21.0070582,16.3465706 L20.790516,16.7746034 L20.5314877,17.2033156 L20.2724594,17.588545 L20.0127458,17.9737745 L19.4076612,18.7449129 L19.0622901,19.0880185 L18.7169191,19.386962 L18.3290619,19.7300676 L17.9823203,20.0296905 L17.5937778,20.2865102 L17.1613787,20.5433298 L16.7735216,20.8001495 L16.3411225,21.0141658 L15.8662372,21.2288616 L15.4338381,21.4000747 L14.9589529,21.5712878 L14.4833824,21.6996977 L14.0084972,21.7853042 L13.533612,21.8709108 L13.0155554,21.9565173 L12.4974988,22 L11.4600151,22 L10.9851299,21.9565173 L10.4670733,21.8709108 L9.99218804,21.7853042 L9.51661756,21.6996977 L9.04173234,21.5712878 L8.09127664,21.2288616 L7.22647845,20.8001495 L6.79613513,20.5433298 L6.40622216,20.2865102 L6.01836497,20.0296905 L5.628452,19.7300676 L5.28376619,19.386962 L4.93839512,19.0880185 L4.59302405,18.7449129 L3.98793942,17.9737745 L3.72822586,17.588545 L3.46988282,17.2033156 L3.21016926,16.7746034 L2.9949976,16.3465706 L2.77777016,15.8757346 L2.60508463,15.4470225 L2.47557048,14.9761864 L2.30288494,14.504671 L2.21722744,14.033835 L2.13019941,13.5201957 L2.0445419,13.005877 L2,12.5350409 L2,12.0207222 L2,12.0207222 Z" sketch:type="MSShapeGroup"></path>
        </g>
    </g>
</svg>