<?xml version="1.0" encoding="UTF-8" standalone="no"?>
<svg width="24px" height="24px" viewBox="0 0 24 24" version="1.1" xmlns="http://www.w3.org/2000/svg" xmlns:xlink="http://www.w3.org/1999/xlink" xmlns:sketch="http://www.bohemiancoding.com/sketch/ns">
    <!-- Generator: Sketch 3.3.3 (12072) - http://www.bohemiancoding.com/sketch -->
    <title>广州市农村信用合作社@0.5x</title>
    <desc>Created with Sketch.</desc>
    <defs></defs>
    <g id="24*24" stroke="none" stroke-width="1" fill="none" fill-rule="evenodd" sketch:type="MSPage">
        <g id="广州市农村信用合作社" sketch:type="MSArtboardGroup">
            <g sketch:type="MSLayerGroup" transform="translate(1.000000, 2.000000)">
                <path d="M11.9465946,15.7636364 L15.246,19.8654545 L20.4397838,19.8654545 L17.4216216,16.5745455 L17.2812973,16.36 L17.2575135,16.2642424 L17.2343243,16.1690909 L17.2343243,15.9066667 L17.2575135,15.8115152 L17.2812973,15.7157576 L17.3282703,15.5963636 L17.4216216,15.4533333 L17.5387568,15.2387879 L17.6790811,15.0721212 L20.6972432,11.4945455 L20.9077297,11.2327273 L21.0712432,10.9939394 L21.1883784,10.7557576 L21.3287027,10.5169697 L21.4226486,10.2781818 L21.4922162,10.04 L21.5397838,9.80121212 L21.5397838,9.11030303 L21.4922162,8.87151515 L21.4226486,8.6569697 L21.3287027,8.41818182 L21.1883784,8.18 L21.0712432,7.98909091 L20.9077297,7.75090909 L14.4266486,0 L13.3974054,0.93030303 L16.5095135,4.76969697 L16.6962162,5.03212121 L16.8365405,5.29393939 L16.9067027,5.43757576 L16.9304865,5.5569697 L16.9536757,5.69939394 L16.9536757,5.81878788 L16.9304865,6.10484848 L16.8597297,6.36727273 L16.7431892,6.63030303 L16.5790811,6.89212121 L12.0637297,12.1860606 L11.9465946,12.2818182 L11.9002162,12.4006061 L11.7592973,12.5678788 L11.6427568,12.7824242 L11.5725946,12.9969697 L11.4786486,13.2121212 L11.4322703,13.4266667 L11.4084865,13.6648485 L11.3615135,13.8793939 L11.3615135,14.1181818 L11.4084865,14.3563636 L11.4322703,14.6187879 L11.5024324,14.8333333 L11.5957838,15.0721212 L11.6897297,15.310303 L11.8062703,15.5490909 L11.9002162,15.6678788 L11.9465946,15.7636364" id="Fill-1" fill="#205839" sketch:type="MSShapeGroup"></path>
                <path d="M7.15,5.72363636 L7.17378378,5.34181818 L7.24394595,4.93636364 L7.26772973,4.74606061 L7.3372973,4.53151515 L7.47821622,4.17333333 L7.64172973,3.83939394 L7.73508108,3.67272727 L7.82902703,3.50545455 L8.0627027,3.21939394 L8.27378378,2.90969697 L8.57762162,2.67090909 L8.85827027,2.45636364 L9.18589189,2.24181818 L9.51351351,2.07454545 L9.86432432,1.95575758 L10.0748108,1.88424242 L10.2621081,1.86 L10.4494054,1.81272727 L10.6598919,1.78848485 L10.8471892,1.78848485 L11.0576757,1.74121212 L11.4084865,1.78848485 L11.7592973,1.86 L12.1107027,1.90787879 L12.4377297,2.05090909 L12.6018378,2.12242424 L12.7653514,2.19393939 L13.092973,2.36060606 L13.3974054,2.55151515 L13.6548649,2.79030303 L13.8653514,3.05272727 L14.0056757,3.17151515 L14.099027,3.31515152 L14.3332973,3.5769697 L14.6609189,4.24484848 L14.6841081,4.41212121 L14.7542703,4.57878788 L14.8482162,4.93636364 L14.9177838,5.29393939 L12.6488108,5.29393939 L11.0576757,3.67272727 L8.99859459,5.72363636 L11.0576757,7.77454545 L12.6488108,6.15272727 L14.9177838,6.15272727 L14.8482162,6.55818182 L14.7542703,6.89212121 L14.6841081,7.05878788 L14.6609189,7.22606061 L14.3332973,7.89333333 L14.099027,8.15636364 L13.8653514,8.41818182 L13.6548649,8.68060606 L13.3974054,8.91939394 L13.2338919,9.01454545 L13.092973,9.11030303 L12.9294595,9.20545455 L12.7653514,9.2769697 L12.4377297,9.42 L12.1107027,9.53939394 L11.7592973,9.63454545 L11.4084865,9.68242424 L11.0576757,9.70606061 L10.6598919,9.68242424 L10.2621081,9.61090909 L10.0748108,9.58666667 L9.86432432,9.51515152 L9.51351351,9.37212121 L9.18589189,9.20545455 L9.02237838,9.11030303 L8.85827027,9.01454545 L8.57762162,8.77636364 L8.27378378,8.53757576 L8.0627027,8.25151515 L7.82902703,7.94121212 L7.64172973,7.60727273 L7.47821622,7.29757576 L7.3372973,6.91636364 L7.26772973,6.72545455 L7.24394595,6.53454545 L7.19697297,6.32 L7.15,5.93818182 L7.15,5.72363636" id="Fill-2" fill="#BD2830" sketch:type="MSShapeGroup"></path>
                <path d="M10.098,15.7636364 L6.82297297,19.8654545 L1.60540541,19.8654545 L4.64675676,16.5745455 L4.76389189,16.36 L4.81086486,16.2642424 L4.83405405,16.1690909 L4.83405405,15.9066667 L4.81086486,15.8115152 L4.76389189,15.7157576 L4.7407027,15.5963636 L4.50643243,15.2387879 L4.34291892,15.0721212 L1.34794595,11.4945455 L1.16064865,11.2327273 L0.997135135,10.9939394 L0.856810811,10.7557576 L0.739675676,10.5169697 L0.64572973,10.2781818 L0.575567568,10.04 L0.506,9.80121212 L0.506,9.11030303 L0.575567568,8.87151515 L0.64572973,8.6569697 L0.833027027,8.18 L0.997135135,7.98909091 L1.16064865,7.75090909 L7.64172973,0 L8.67097297,0.93030303 L5.55945946,4.76969697 L5.34897297,5.03212121 L5.23183784,5.29393939 L5.16167568,5.43757576 L5.13848649,5.5569697 L5.09151351,5.69939394 L5.09151351,5.81878788 L5.13848649,6.10484848 L5.18486486,6.36727273 L5.32518919,6.63030303 L5.4892973,6.89212121 L10.0046486,12.1860606 L10.098,12.2818182 L10.1687568,12.4006061 L10.2852973,12.5678788 L10.4024324,12.7824242 L10.4963784,12.9969697 L10.5897297,13.2121212 L10.6129189,13.4266667 L10.6598919,13.6648485 L10.6830811,13.8793939 L10.6830811,14.1181818 L10.6598919,14.3563636 L10.6129189,14.6187879 L10.5665405,14.8333333 L10.4494054,15.0721212 L10.3554595,15.310303 L10.2389189,15.5490909 L10.1687568,15.6678788 L10.098,15.7636364" id="Fill-3" fill="#205839" sketch:type="MSShapeGroup"></path>
            </g>
        </g>
    </g>
</svg>