<?xml version="1.0" encoding="UTF-8" standalone="no"?>
<svg width="24px" height="24px" viewBox="0 0 24 24" version="1.1" xmlns="http://www.w3.org/2000/svg" xmlns:xlink="http://www.w3.org/1999/xlink" xmlns:sketch="http://www.bohemiancoding.com/sketch/ns">
    <!-- Generator: Sketch 3.3.3 (12072) - http://www.bohemiancoding.com/sketch -->
    <title>招商银行@0.5x</title>
    <desc>Created with Sketch.</desc>
    <defs></defs>
    <g id="24*24" stroke="none" stroke-width="1" fill="none" fill-rule="evenodd" sketch:type="MSPage">
        <g id="招商银行" sketch:type="MSArtboardGroup" fill="#D9222A">
            <path d="M11.1718482,16.0461959 L13.8848938,9.19550656 L16.7126851,16.0461959 L11.1718482,16.0461959 L11.1718482,16.0461959 Z M5.49403743,16.0461959 L8.207083,9.19550656 L11.0348743,16.0461959 L5.49403743,16.0461959 L5.49403743,16.0461959 Z M19.5861344,14.4825038 L21.7020216,14.4825038 L21.5866751,14.873577 L19.7705686,14.873577 L19.5861344,14.4825038 L19.5861344,14.4825038 Z M19.1722087,13.5171357 L21.8846535,13.5171357 L21.8167673,13.9310366 L19.3560422,13.9310366 L19.1722087,13.5171357 L19.1722087,13.5171357 Z M18.7588838,12.5517676 L22,12.5517676 L21.954342,12.9656685 L18.943318,12.9656685 L18.7588838,12.5517676 L18.7588838,12.5517676 Z M18.3683879,11.5863995 L22,11.5863995 L22,11.9996996 L18.5293923,11.9996996 L18.3683879,11.5863995 L18.3683879,11.5863995 Z M17.9538614,10.6210314 L21.908684,10.6210314 L21.954342,11.0349323 L18.1148659,11.0349323 L17.9538614,10.6210314 L17.9538614,10.6210314 Z M17.5399357,9.65506263 L21.7242498,9.65506263 L21.8167673,10.0689634 L17.7243699,10.0689634 L17.5399357,9.65506263 L17.5399357,9.65506263 Z M12.0003004,2 L12.4136253,2 L12.8509807,2.04625597 L13.2643057,2.06908359 L13.6548016,2.13816718 L14.069328,2.20725077 L14.459824,2.29916199 L14.8503199,2.41390082 L15.2414166,2.52863965 L15.4258508,2.59832397 L15.6096843,2.66680684 L15.9767505,2.82780164 L16.3456189,2.98879644 L16.6892554,3.17261887 L17.0340933,3.35644129 L17.3789312,3.56369207 L17.7021417,3.79316974 L18.0235499,4.02324813 L18.3227299,4.2527258 L18.6207083,4.50623254 L18.9198883,4.78196618 L19.1956385,5.05769982 L19.4713887,5.33343345 L19.7249106,5.63259544 L19.8396564,5.79298952 L19.9550029,5.95458505 L20.2067225,6.27597393 L20.4145865,6.59796354 L20.621249,6.91995314 L20.8279114,7.26477037 L20.9883152,7.63241522 L21.1727494,7.97723245 L21.3109249,8.3448773 L21.4484996,8.73534977 L21.5866751,9.10359535 L17.3098435,9.10359535 L14.6664864,2.91971285 L11.9077829,9.88514102 L9.01090385,2.98879644 L3.90802319,16.1609347 L6.22997206,19.0576397 L18.0457781,19.0576397 L20.2067225,15.9080287 L20.0006608,15.425645 L21.4028416,15.425645 L21.2640654,15.7932899 L21.1036617,16.1381071 L20.9426572,16.4829243 L20.7822535,16.8049139 L20.575591,17.1497312 L20.3911568,17.4711201 L20.1610646,17.770282 L19.9550029,18.0688433 L19.7249106,18.3680053 L19.4713887,18.6665665 L19.2190682,18.9194726 L18.943318,19.1952062 L18.6663663,19.4481122 L18.3906161,19.7010182 L18.0926376,19.9310966 L17.7934577,20.161175 L17.4942777,20.3678251 L17.1728695,20.5744751 L16.8514614,20.7588983 L16.5060226,20.94212 L16.1611847,21.1031148 L15.8163468,21.241282 L15.4492806,21.3794491 L15.1038419,21.5170156 L14.7355742,21.6323551 L14.3450782,21.7236656 L13.9762098,21.8161776 L13.5869154,21.8852612 L13.4024812,21.9080888 L13.1952179,21.9309164 L12.8041212,21.9765717 L12.4136253,22 L11.4950587,22 L10.9892163,21.953744 L10.4821724,21.8852612 L9.97632994,21.7927492 L9.49391727,21.6780104 L9.0343336,21.5626708 L8.57414917,21.4022768 L8.1145655,21.2184543 L7.67781082,21.0112036 L7.24105614,20.8045535 L7.03379292,20.6663863 L6.82713046,20.5516475 L6.41320477,20.2987415 L6.02210808,20.0230078 L5.63161215,19.7238459 L5.44837944,19.562851 L5.2867742,19.402457 L5.1035415,19.2414622 L4.94253702,19.0804674 L4.59769908,18.7356501 L4.27508936,18.3680053 L4.13751464,18.1835821 L3.99933916,17.9769321 L3.70136073,17.5864596 L3.58601424,17.4026372 L3.44783876,17.1953864 L3.33309303,16.9887364 L3.21774654,16.758658 L2.98765432,16.3447572 L2.78159262,15.8852011 L2.62058815,15.4484727 L2.45958367,14.9654882 L2.32140819,14.5059322 L2.25232045,14.2530262 L2.20666246,14.0229478 L2.11474573,13.5171357 L2.04565799,13.034752 L2.02222823,12.5055117 L2,12.2526057 L2,11.9996996 L2.02222823,11.4944883 L2.04565799,10.9886763 L2.11474573,10.4828643 L2.20666246,9.97705223 L2.32140819,9.49466855 L2.45958367,9.03451176 L2.78159262,8.11539963 L2.98765432,7.67867119 L3.21774654,7.24194275 L3.33309303,7.03469198 L3.44783876,6.82804193 L3.70136073,6.41414111 L3.99933916,6.02306791 L4.27508936,5.63259544 L4.43729537,5.44877302 L4.59769908,5.28777821 L4.75870355,5.10395579 L4.94253702,4.94296098 L5.2867742,4.59814375 L5.63161215,4.27615415 L5.83887537,4.13858769 L6.02210808,4.00042051 L6.41320477,3.70125852 L6.62046799,3.58651969 L6.82713046,3.44835251 L7.03379292,3.33361367 L7.24105614,3.21887484 L7.67781082,2.98879644 L8.1145655,2.7821464 L8.57414917,2.59832397 L9.0343336,2.46015679 L9.49391727,2.32198961 L9.74623772,2.25290602 L9.97632994,2.20725077 L10.2298519,2.16159553 L10.4821724,2.11533956 L10.9892163,2.04625597 L11.4950587,2.02342835 L11.7467784,2 L12.0003004,2 L12.0003004,2 Z" sketch:type="MSShapeGroup"></path>
        </g>
    </g>
</svg>