<?xml version="1.0" encoding="UTF-8" standalone="no"?>
<svg width="24px" height="24px" viewBox="0 0 24 24" version="1.1" xmlns="http://www.w3.org/2000/svg" xmlns:xlink="http://www.w3.org/1999/xlink" xmlns:sketch="http://www.bohemiancoding.com/sketch/ns">
    <!-- Generator: Sketch 3.3.3 (12072) - http://www.bohemiancoding.com/sketch -->
    <title>浙商银行@0.5x</title>
    <desc>Created with Sketch.</desc>
    <defs></defs>
    <g id="24*24" stroke="none" stroke-width="1" fill="none" fill-rule="evenodd" sketch:type="MSPage">
        <g id="浙商银行" sketch:type="MSArtboardGroup" fill="#D1AA3B">
            <g sketch:type="MSLayerGroup">
                <path d="M10.7498667,10.5093333 L12.8661333,8.30133333 L7.37706667,3.04 L5.26133333,5.24586667 L10.7498667,10.5093333" id="Fill-1" sketch:type="MSShapeGroup"></path>
                <path d="M11.2389333,16.5509333 L9.17813333,18.6997333 L10.8437333,20.2965333 L10.5104,20.6437333 L3.84906667,14.2586667 L4.18293333,13.9098667 L5.90613333,15.5626667 L7.9664,13.4133333 L2.4768,8.15093333 L0.429333333,10.2864 L2.55306667,12.3232 L0.294933333,14.6794667 L9.98613333,23.9706667 L12.2458667,21.6133333 L14.3706667,23.6512 L16.4176,21.5146667 L11.2389333,16.5509333" id="Fill-2" sketch:type="MSShapeGroup"></path>
                <path d="M13.2010667,7.9536 L15.1493333,5.92 L13.4266667,4.26826667 L13.7605333,3.91946667 L20.4208,10.304 L20.0864,10.6533333 L18.4213333,9.05653333 L16.4730667,11.0906667 L21.6522667,16.0554667 L23.6608,13.9589333 L21.5376,11.9216 L23.5733333,9.79733333 L13.8810667,0.506133333 L11.8458667,2.63146667 L9.72106667,0.594666667 L7.7104,2.69013333 L13.2010667,7.9536" id="Fill-3" sketch:type="MSShapeGroup"></path>
                <path d="M8.30133333,13.0645333 L10.416,10.8570667 L4.9264,5.59466667 L2.8112,7.80266667 L8.30133333,13.0645333" id="Fill-4" sketch:type="MSShapeGroup"></path>
                <path d="M16.1392,11.4378667 L14.0229333,13.6458667 L19.2010667,18.6101333 L21.3168,16.4026667 L16.1392,11.4378667" id="Fill-6" sketch:type="MSShapeGroup"></path>
                <path d="M13.688,13.9941333 L11.5728,16.2021333 L16.7509333,21.1669333 L18.8677333,18.9589333 L13.688,13.9941333" id="Fill-7" sketch:type="MSShapeGroup"></path>
            </g>
        </g>
    </g>
</svg>