<?xml version="1.0" encoding="UTF-8" standalone="no"?>
<svg width="24px" height="24px" viewBox="0 0 24 24" version="1.1" xmlns="http://www.w3.org/2000/svg" xmlns:xlink="http://www.w3.org/1999/xlink" xmlns:sketch="http://www.bohemiancoding.com/sketch/ns">
    <!-- Generator: Sketch 3.3.3 (12072) - http://www.bohemiancoding.com/sketch -->
    <title>深圳发展银行@0.5x</title>
    <desc>Created with Sketch.</desc>
    <defs></defs>
    <g id="24*24" stroke="none" stroke-width="1" fill="none" fill-rule="evenodd" sketch:type="MSPage">
        <g id="深圳发展银行" sketch:type="MSArtboardGroup" fill="#007FBA">
            <path d="M4.10532268,1.10297059 L19.5270366,1.04016142 C19.5270366,1.04016142 22.8034719,0.471227194 22.9730967,3.61606772 L22.9701208,19.3095961 C22.9701208,19.3095961 23.5199132,22.9671347 19.9027405,23 L4.54872765,22.95691 C4.54872765,22.95691 1.0349665,23.3250009 1,19.6440914 L1.0349665,4.51949729 C1.0349665,4.51949729 0.898076376,1.03650972 4.10532268,1.10297059 L4.10532268,1.10297059 Z M5.06132164,4.88758824 C5.06132164,4.88758824 12.6349165,11.3452473 19.0836316,4.75393617 C19.0836316,4.75393617 12.8744742,11.8813163 19.0501531,18.4733577 C19.0501531,18.4733577 10.9289977,12.9519935 5.02635514,19.2088093 C5.02635514,19.2088093 11.2861024,11.9207546 5.06132164,4.88758824 L5.06132164,4.88758824 Z" sketch:type="MSShapeGroup"></path>
        </g>
    </g>
</svg>