<?xml version="1.0" encoding="UTF-8" standalone="no"?>
<svg width="24px" height="24px" viewBox="0 0 24 24" version="1.1" xmlns="http://www.w3.org/2000/svg" xmlns:xlink="http://www.w3.org/1999/xlink" xmlns:sketch="http://www.bohemiancoding.com/sketch/ns">
    <!-- Generator: Sketch 3.3.3 (12072) - http://www.bohemiancoding.com/sketch -->
    <title>盛京银行@0.5x</title>
    <desc>Created with Sketch.</desc>
    <defs></defs>
    <g id="24*24" stroke="none" stroke-width="1" fill="none" fill-rule="evenodd" sketch:type="MSPage">
        <g id="盛京银行" sketch:type="MSArtboardGroup" fill="#D82F32">
            <g sketch:type="MSLayerGroup" transform="translate(1.000000, 1.000000)">
                <path d="M14.8042162,14.209027 C14.8042162,14.6085946 14.4801622,14.9320541 14.0811892,14.9320541 L11.4554595,14.9320541 L11.4554595,21.8043784 L19.5074595,21.8043784 C20.7043784,21.8043784 21.6759459,20.8322162 21.6759459,19.6352973 L21.6759459,11.5838919 L14.8042162,11.5838919 L14.8042162,14.209027" id="Fill-1" sketch:type="MSShapeGroup"></path>
                <path d="M14.0811892,7.1387027 C14.4801622,7.1387027 14.8042162,7.46275676 14.8042162,7.86232432 L14.8042162,10.4886486 L21.6759459,10.4886486 L21.6759459,2.43545946 C21.6759459,1.23854054 20.7043784,0.266972973 19.5074595,0.266972973 L11.4554595,0.266972973 L11.4554595,7.1387027 L14.0811892,7.1387027" id="Fill-2" sketch:type="MSShapeGroup"></path>
                <path d="M7.01086486,7.86232432 C7.01086486,7.46275676 7.33491892,7.1387027 7.73448649,7.1387027 L10.3596216,7.1387027 L10.3596216,0.266972973 L2.30821622,0.266972973 C1.11010811,0.266972973 0.139135135,1.23854054 0.139135135,2.43545946 L0.139135135,10.4886486 L7.01086486,10.4886486 L7.01086486,7.86232432" id="Fill-3" sketch:type="MSShapeGroup"></path>
                <path d="M7.73448649,14.9320541 C7.33491892,14.9320541 7.01086486,14.6085946 7.01086486,14.209027 L7.01086486,11.5838919 L0.139135135,11.5838919 L0.139135135,19.6352973 C0.139135135,20.8322162 1.11010811,21.8043784 2.30821622,21.8043784 L10.3596216,21.8043784 L10.3596216,14.9320541 L7.73448649,14.9320541" id="Fill-4" sketch:type="MSShapeGroup"></path>
            </g>
        </g>
    </g>
</svg>